# MagicaVoxel @ ephtracy

# material
mtllib Bedroom_Desk.mtl
usemtl palette

# normals
vn -1 0 0
vn 1 0 0
vn 0 0 1
vn 0 0 -1
vn 0 -1 0
vn 0 1 0

# texcoords
vt 0.00585938 0.5
vt 0.0332031 0.5
vt 0.306641 0.5
vt 0.365234 0.5
vt 0.673828 0.5
vt 0.982422 0.5

# verts and faces
v -12.5 0 4
v -12.5 0 2
v -12.5 0 -2
v -12.5 0 -4
v -12.5 12 2
v -12.5 12 -2
v -12.5 15 4
v -12.5 15 3
v -12.5 15 -0
v -12.5 15 -1
v -12.5 15 -3
v -12.5 15 -4
v -12.5 16 3
v -12.5 16 2
v -12.5 16 -0
v -12.5 16 -1
v -12.5 16 -2
v -12.5 16 -3
v -12.5 17 2
v -12.5 17 -2
f -16/3/1 -19/3/1 -20/3/1
f -15/3/1 -17/3/1 -18/3/1
f -14/3/1 -16/3/1 -20/3/1
f -14/3/1 -15/3/1 -16/3/1
f -13/3/1 -15/3/1 -14/3/1
f -12/3/1 -15/3/1 -13/3/1
f -11/3/1 -15/3/1 -12/3/1
f -10/3/1 -17/3/1 -15/3/1
f -10/3/1 -15/3/1 -11/3/1
f -9/3/1 -17/3/1 -10/3/1
f -8/1/1 -12/1/1 -13/1/1
f -7/1/1 -12/1/1 -8/1/1
f -6/2/1 -11/2/1 -12/2/1
f -6/1/1 -12/1/1 -7/1/1
f -5/1/1 -10/1/1 -11/1/1
f -5/2/1 -11/2/1 -6/2/1
f -4/1/1 -10/1/1 -5/1/1
f -3/1/1 -10/1/1 -4/1/1
f -2/1/1 -6/1/1 -7/1/1
f -2/1/1 -4/1/1 -5/1/1
f -2/1/1 -5/1/1 -6/1/1
f -1/1/1 -4/1/1 -2/1/1
v -11.5 16 3
v -11.5 16 2
v -11.5 16 -2
v -11.5 16 -3
v -11.5 17 3
v -11.5 17 2
v -11.5 17 -2
v -11.5 17 -3
f -4/1/1 -7/1/1 -8/1/1
f -3/1/1 -7/1/1 -4/1/1
f -2/1/1 -5/1/1 -6/1/1
f -1/1/1 -5/1/1 -2/1/1
v -10.5 17 3
v -10.5 17 -3
v -10.5 25 3
v -10.5 25 -3
f -2/1/1 -3/1/1 -4/1/1
f -1/1/1 -3/1/1 -2/1/1
v -9.5 11 3
v -9.5 11 2
v -9.5 11 -2
v -9.5 11 -3
v -9.5 12 3
v -9.5 12 2
v -9.5 12 -2
v -9.5 12 -3
f -4/3/1 -7/3/1 -8/3/1
f -3/3/1 -7/3/1 -4/3/1
f -2/3/1 -5/3/1 -6/3/1
f -1/3/1 -5/3/1 -2/3/1
v -8.5 12 3
v -8.5 12 2
v -8.5 12 -2
v -8.5 12 -3
v -8.5 13 3
v -8.5 13 2
v -8.5 13 -2
v -8.5 13 -3
f -4/3/1 -7/3/1 -8/3/1
f -3/3/1 -7/3/1 -4/3/1
f -2/3/1 -5/3/1 -6/3/1
f -1/3/1 -5/3/1 -2/3/1
v -7.5 22 2
v -7.5 22 -2
v -7.5 24 2
v -7.5 24 -2
f -2/2/1 -3/2/1 -4/2/1
f -1/2/1 -3/2/1 -2/2/1
v -4.5 15 -3
v -4.5 15 -4
v -4.5 17 -3
v -4.5 17 -4
f -2/6/1 -3/6/1 -4/6/1
f -1/6/1 -3/6/1 -2/6/1
v -0.5 9 3
v -0.5 9 -3
v -0.5 9 -4
v -0.5 10 -3
v -0.5 10 -4
v -0.5 11 3
v -0.5 11 -3
f -4/4/1 -6/4/1 -7/4/1
f -4/3/1 -5/3/1 -6/3/1
f -3/3/1 -5/3/1 -4/3/1
f -2/4/1 -4/4/1 -7/4/1
f -1/4/1 -4/4/1 -2/4/1
v 0.5 0 3
v 0.5 0 2
v 0.5 0 -2
v 0.5 0 -4
v 0.5 8 2
v 0.5 8 -2
v 0.5 9 3
v 0.5 9 -3
v 0.5 9 -4
f -5/3/1 -8/3/1 -9/3/1
f -4/3/1 -6/3/1 -7/3/1
f -3/3/1 -5/3/1 -9/3/1
f -3/3/1 -4/3/1 -5/3/1
f -2/3/1 -6/3/1 -4/3/1
f -2/3/1 -4/3/1 -3/3/1
f -1/3/1 -6/3/1 -2/3/1
v 5.5 0 4
v 5.5 0 3
v 5.5 0 -3
v 5.5 0 -4
v 5.5 8 3
v 5.5 8 -3
v 5.5 9 3
v 5.5 9 -3
v 5.5 11 3
v 5.5 11 2
v 5.5 11 -3
v 5.5 12 2
v 5.5 12 -3
v 5.5 13 4
v 5.5 13 -4
f -11/3/1 -14/3/1 -15/3/1
f -10/3/1 -12/3/1 -13/3/1
f -9/3/1 -11/3/1 -15/3/1
f -8/3/1 -12/3/1 -10/3/1
f -7/3/1 -9/3/1 -15/3/1
f -5/3/1 -12/3/1 -8/3/1
f -4/3/1 -6/3/1 -7/3/1
f -3/3/1 -12/3/1 -5/3/1
f -2/3/1 -4/3/1 -7/3/1
f -2/3/1 -3/3/1 -4/3/1
f -2/3/1 -7/3/1 -15/3/1
f -1/3/1 -12/3/1 -3/3/1
f -1/3/1 -3/3/1 -2/3/1
v 9.5 10 -3
v 9.5 10 -4
v 9.5 11 -3
v 9.5 14 3
v 9.5 14 -3
v 9.5 19 3
v 9.5 19 -4
f -5/3/1 -6/3/1 -7/3/1
f -3/3/1 -6/3/1 -5/3/1
f -2/3/1 -3/3/1 -4/3/1
f -1/3/1 -6/3/1 -3/3/1
f -1/3/1 -3/3/1 -2/3/1
v 10.5 9 -3
v 10.5 9 -4
v 10.5 10 -3
v 10.5 10 -4
v 10.5 11 3
v 10.5 11 2
v 10.5 12 3
v 10.5 12 2
f -6/3/1 -7/3/1 -8/3/1
f -5/3/1 -7/3/1 -6/3/1
f -2/3/1 -3/3/1 -4/3/1
f -1/3/1 -3/3/1 -2/3/1
v 11.5 0 3
v 11.5 0 1
v 11.5 0 -3
v 11.5 0 -4
v 11.5 8 3
v 11.5 8 1
v 11.5 8 -3
v 11.5 8 -4
v 11.5 11 2
v 11.5 11 -3
v 11.5 12 3
v 11.5 12 2
v 11.5 14 3
v 11.5 14 -3
v 11.5 19 3
v 11.5 19 -4
v 11.5 20 3
v 11.5 20 -4
f -14/3/1 -17/3/1 -18/3/1
f -13/3/1 -17/3/1 -14/3/1
f -12/3/1 -15/3/1 -16/3/1
f -11/3/1 -15/3/1 -12/3/1
f -7/3/1 -9/3/1 -10/3/1
f -6/3/1 -7/3/1 -8/3/1
f -5/3/1 -9/3/1 -7/3/1
f -5/3/1 -7/3/1 -6/3/1
f -2/3/1 -3/3/1 -4/3/1
f -1/3/1 -3/3/1 -2/3/1
v -10.5 0 4
v -10.5 0 2
v -10.5 0 -2
v -10.5 0 -4
v -10.5 10 3
v -10.5 10 2
v -10.5 10 -2
v -10.5 10 -3
v -10.5 11 3
v -10.5 11 2
v -10.5 11 -2
v -10.5 11 -3
v -10.5 12 2
v -10.5 12 -2
v -10.5 13 4
v -10.5 13 -4
f -16/3/2 -15/3/2 -12/3/2
f -12/3/2 -15/3/2 -11/3/2
f -14/3/2 -13/3/2 -10/3/2
f -10/3/2 -13/3/2 -9/3/2
f -16/3/2 -12/3/2 -8/3/2
f -9/3/2 -13/3/2 -5/3/2
f -8/3/2 -7/3/2 -4/3/2
f -6/3/2 -5/3/2 -3/3/2
f -8/3/2 -4/3/2 -2/3/2
f -4/3/2 -3/3/2 -2/3/2
f -16/3/2 -8/3/2 -2/3/2
f -3/3/2 -5/3/2 -1/3/2
f -2/3/2 -3/3/2 -1/3/2
f -5/3/2 -13/3/2 -1/3/2
v -9.5 17 3
v -9.5 17 -3
v -9.5 24 3
v -9.5 24 -3
f -4/1/2 -3/1/2 -2/1/2
f -2/1/2 -3/1/2 -1/1/2
v -8.5 10 3
v -8.5 10 2
v -8.5 10 -2
v -8.5 10 -3
v -8.5 11 3
v -8.5 11 2
v -8.5 11 -2
v -8.5 11 -3
f -8/3/2 -7/3/2 -4/3/2
f -4/3/2 -7/3/2 -3/3/2
f -6/3/2 -5/3/2 -2/3/2
f -2/3/2 -5/3/2 -1/3/2
v -7.5 11 3
v -7.5 11 2
v -7.5 11 -2
v -7.5 11 -3
v -7.5 13 3
v -7.5 13 2
v -7.5 13 -2
v -7.5 13 -3
f -8/3/2 -7/3/2 -4/3/2
f -4/3/2 -7/3/2 -3/3/2
f -6/3/2 -5/3/2 -2/3/2
f -2/3/2 -5/3/2 -1/3/2
v -4.5 22 2
v -4.5 22 -2
v -4.5 24 3
v -4.5 24 2
v -4.5 24 -2
v -4.5 24 -3
v -4.5 25 3
v -4.5 25 -3
f -8/2/2 -7/2/2 -5/2/2
f -5/2/2 -7/2/2 -4/2/2
f -6/1/2 -5/1/2 -2/1/2
f -4/1/2 -3/1/2 -2/1/2
f -5/1/2 -4/1/2 -2/1/2
f -2/1/2 -3/1/2 -1/1/2
v 2.5 0 3
v 2.5 0 2
v 2.5 0 -2
v 2.5 0 -4
v 2.5 8 3
v 2.5 8 2
v 2.5 8 -2
v 2.5 8 -3
v 2.5 9 -3
v 2.5 10 -3
v 2.5 10 -4
f -11/3/2 -10/3/2 -7/3/2
f -7/3/2 -10/3/2 -6/3/2
f -9/3/2 -8/3/2 -5/3/2
f -5/3/2 -8/3/2 -4/3/2
f -4/3/2 -8/3/2 -3/3/2
f -3/3/2 -8/3/2 -2/3/2
f -2/3/2 -8/3/2 -1/3/2
v 6.5 11 3
v 6.5 11 2
v 6.5 12 3
v 6.5 12 2
f -4/3/2 -3/3/2 -2/3/2
f -2/3/2 -3/3/2 -1/3/2
v 7.5 0 4
v 7.5 0 3
v 7.5 0 -3
v 7.5 0 -4
v 7.5 8 3
v 7.5 8 -3
v 7.5 8 -4
v 7.5 9 3
v 7.5 9 -3
v 7.5 9 -4
v 7.5 11 3
v 7.5 11 -3
v 7.5 12 3
v 7.5 12 -3
v 7.5 15 4
v 7.5 15 3
v 7.5 17 3
v 7.5 17 -4
f -18/3/2 -17/3/2 -14/3/2
f -16/3/2 -15/3/2 -13/3/2
f -13/3/2 -15/3/2 -12/3/2
f -18/3/2 -14/3/2 -11/3/2
f -18/3/2 -11/3/2 -8/3/2
f -10/3/2 -9/3/2 -7/3/2
f -18/3/2 -8/3/2 -6/3/2
f -7/3/2 -9/3/2 -5/3/2
f -18/3/2 -6/3/2 -4/3/2
f -6/3/2 -5/3/2 -4/3/2
f -4/3/2 -5/3/2 -3/3/2
f -3/3/2 -5/3/2 -2/3/2
f -5/3/2 -9/3/2 -1/3/2
f -2/3/2 -5/3/2 -1/3/2
v 11.5 8 1
v 11.5 8 -3
v 11.5 9 1
v 11.5 9 -3
f -4/3/2 -3/3/2 -2/3/2
f -2/3/2 -3/3/2 -1/3/2
v 12.5 0 3
v 12.5 0 1
v 12.5 0 -3
v 12.5 0 -4
v 12.5 9 1
v 12.5 9 -3
v 12.5 20 3
v 12.5 20 -4
f -8/3/2 -7/3/2 -4/3/2
f -6/3/2 -5/3/2 -3/3/2
f -8/3/2 -4/3/2 -2/3/2
f -4/3/2 -3/3/2 -2/3/2
f -3/3/2 -5/3/2 -1/3/2
f -2/3/2 -3/3/2 -1/3/2
v -12.5 0 4
v -12.5 15 4
v -10.5 0 4
v -10.5 13 4
v -4.5 14 4
v -4.5 15 4
v 2.5 14 4
v 2.5 15 4
v 5.5 0 4
v 5.5 13 4
v 7.5 0 4
v 7.5 15 4
f -10/3/3 -11/3/3 -12/3/3
f -9/3/3 -11/3/3 -10/3/3
f -8/3/3 -11/3/3 -9/3/3
f -7/3/3 -11/3/3 -8/3/3
f -6/3/3 -8/3/3 -9/3/3
f -6/6/3 -7/6/3 -8/6/3
f -5/6/3 -7/6/3 -6/6/3
f -3/3/3 -6/3/3 -9/3/3
f -3/3/3 -5/3/3 -6/3/3
f -2/3/3 -3/3/3 -4/3/3
f -1/3/3 -5/3/3 -3/3/3
f -1/3/3 -3/3/3 -2/3/3
v -12.5 15 3
v -12.5 16 3
v -11.5 16 3
v -11.5 17 3
v -10.5 10 3
v -10.5 11 3
v -10.5 17 3
v -10.5 25 3
v -9.5 11 3
v -9.5 12 3
v -9.5 17 3
v -9.5 24 3
v -8.5 10 3
v -8.5 11 3
v -8.5 12 3
v -8.5 13 3
v -7.5 11 3
v -7.5 13 3
v -4.5 15 3
v -4.5 17 3
v -4.5 24 3
v -4.5 25 3
v -0.5 9 3
v -0.5 11 3
v 0.5 0 3
v 0.5 9 3
v 2.5 0 3
v 2.5 8 3
v 2.5 15 3
v 2.5 17 3
v 5.5 8 3
v 5.5 9 3
v 5.5 11 3
v 7.5 8 3
v 7.5 9 3
v 7.5 11 3
v 7.5 15 3
v 7.5 17 3
v 9.5 14 3
v 9.5 19 3
v 10.5 11 3
v 10.5 12 3
v 11.5 0 3
v 11.5 8 3
v 11.5 9 3
v 11.5 11 3
v 11.5 12 3
v 11.5 14 3
v 11.5 19 3
v 11.5 20 3
v 12.5 0 3
v 12.5 20 3
f -50/1/3 -51/1/3 -52/1/3
f -46/1/3 -49/1/3 -50/1/3
f -44/3/3 -47/3/3 -48/3/3
f -42/1/3 -45/1/3 -46/1/3
f -42/1/3 -46/1/3 -50/1/3
f -41/1/3 -45/1/3 -42/1/3
f -40/3/3 -43/3/3 -44/3/3
f -40/3/3 -44/3/3 -48/3/3
f -39/3/3 -43/3/3 -40/3/3
f -38/3/3 -43/3/3 -39/3/3
f -36/3/3 -37/3/3 -38/3/3
f -36/3/3 -38/3/3 -39/3/3
f -35/3/3 -37/3/3 -36/3/3
f -34/1/3 -50/1/3 -52/1/3
f -34/1/3 -42/1/3 -50/1/3
f -33/1/3 -42/1/3 -34/1/3
f -32/1/3 -45/1/3 -41/1/3
f -31/1/3 -45/1/3 -32/1/3
f -27/4/3 -29/4/3 -30/4/3
f -26/3/3 -27/3/3 -28/3/3
f -25/3/3 -27/3/3 -26/3/3
f -24/6/3 -33/6/3 -34/6/3
f -23/6/3 -33/6/3 -24/6/3
f -22/3/3 -27/3/3 -25/3/3
f -21/4/3 -29/4/3 -27/4/3
f -21/3/3 -27/3/3 -22/3/3
f -20/4/3 -29/4/3 -21/4/3
f -16/3/3 -23/3/3 -24/3/3
f -15/3/3 -23/3/3 -16/3/3
f -12/4/3 -17/4/3 -18/4/3
f -9/3/3 -18/3/3 -19/3/3
f -8/4/3 -12/4/3 -18/4/3
f -8/3/3 -18/3/3 -9/3/3
f -7/3/3 -11/3/3 -12/3/3
f -7/4/3 -12/4/3 -8/4/3
f -6/3/3 -11/3/3 -7/3/3
f -5/3/3 -13/3/3 -14/3/3
f -4/3/3 -13/3/3 -5/3/3
f -2/3/3 -6/3/3 -7/3/3
f -2/3/3 -3/3/3 -4/3/3
f -2/3/3 -4/3/3 -5/3/3
f -2/3/3 -5/3/3 -6/3/3
f -2/3/3 -8/3/3 -9/3/3
f -2/3/3 -7/3/3 -8/3/3
f -2/3/3 -9/3/3 -10/3/3
f -1/3/3 -3/3/3 -2/3/3
v -12.5 16 2
v -12.5 17 2
v -11.5 16 2
v -11.5 17 2
v -7.5 22 2
v -7.5 24 2
v -4.5 22 2
v -4.5 24 2
f -6/1/3 -7/1/3 -8/1/3
f -5/1/3 -7/1/3 -6/1/3
f -2/2/3 -3/2/3 -4/2/3
f -1/2/3 -3/2/3 -2/2/3
v -12.5 0 -2
v -12.5 12 -2
v -10.5 0 -2
v -10.5 10 -2
v -10.5 11 -2
v -10.5 12 -2
v -9.5 11 -2
v -9.5 12 -2
v -8.5 10 -2
v -8.5 11 -2
v -8.5 12 -2
v -8.5 13 -2
v -7.5 11 -2
v -7.5 13 -2
v 0.5 0 -2
v 0.5 8 -2
v 2.5 0 -2
v 2.5 8 -2
f -16/3/3 -17/3/3 -18/3/3
f -15/3/3 -17/3/3 -16/3/3
f -14/3/3 -17/3/3 -15/3/3
f -13/3/3 -17/3/3 -14/3/3
f -12/3/3 -14/3/3 -15/3/3
f -10/3/3 -12/3/3 -15/3/3
f -10/3/3 -11/3/3 -12/3/3
f -9/3/3 -11/3/3 -10/3/3
f -8/3/3 -11/3/3 -9/3/3
f -6/3/3 -8/3/3 -9/3/3
f -6/3/3 -7/3/3 -8/3/3
f -5/3/3 -7/3/3 -6/3/3
f -2/3/3 -3/3/3 -4/3/3
f -1/3/3 -3/3/3 -2/3/3
v 5.5 0 -3
v 5.5 8 -3
v 5.5 11 -3
v 5.5 12 -3
v 7.5 0 -3
v 7.5 8 -3
v 7.5 11 -3
v 7.5 12 -3
v 9.5 11 -3
v 9.5 14 -3
v 11.5 0 -3
v 11.5 8 -3
v 11.5 9 -3
v 11.5 11 -3
v 11.5 14 -3
v 12.5 0 -3
v 12.5 9 -3
f -13/3/3 -16/3/3 -17/3/3
f -12/3/3 -16/3/3 -13/3/3
f -11/3/3 -14/3/3 -15/3/3
f -10/3/3 -14/3/3 -11/3/3
f -4/3/3 -8/3/3 -9/3/3
f -3/3/3 -8/3/3 -4/3/3
f -2/3/3 -5/3/3 -6/3/3
f -2/3/3 -6/3/3 -7/3/3
f -1/3/3 -5/3/3 -2/3/3
v 5.5 0 3
v 5.5 8 3
v 6.5 11 3
v 6.5 12 3
v 7.5 0 3
v 7.5 8 3
v 7.5 11 3
v 7.5 12 3
f -8/3/4 -7/3/4 -4/3/4
f -4/3/4 -7/3/4 -3/3/4
f -6/3/4 -5/3/4 -2/3/4
f -2/3/4 -5/3/4 -1/3/4
v -12.5 0 2
v -12.5 12 2
v -10.5 0 2
v -10.5 10 2
v -10.5 11 2
v -10.5 12 2
v -9.5 11 2
v -9.5 12 2
v -8.5 10 2
v -8.5 11 2
v -8.5 12 2
v -8.5 13 2
v -7.5 11 2
v -7.5 13 2
v 0.5 0 2
v 0.5 8 2
v 2.5 0 2
v 2.5 8 2
v 5.5 11 2
v 5.5 12 2
v 6.5 11 2
v 6.5 12 2
v 10.5 11 2
v 10.5 12 2
v 11.5 11 2
v 11.5 12 2
f -26/3/4 -25/3/4 -24/3/4
f -24/3/4 -25/3/4 -23/3/4
f -23/3/4 -25/3/4 -22/3/4
f -22/3/4 -25/3/4 -21/3/4
f -23/3/4 -22/3/4 -20/3/4
f -23/3/4 -20/3/4 -18/3/4
f -20/3/4 -19/3/4 -18/3/4
f -18/3/4 -19/3/4 -17/3/4
f -17/3/4 -19/3/4 -16/3/4
f -17/3/4 -16/3/4 -14/3/4
f -16/3/4 -15/3/4 -14/3/4
f -14/3/4 -15/3/4 -13/3/4
f -12/3/4 -11/3/4 -10/3/4
f -10/3/4 -11/3/4 -9/3/4
f -8/3/4 -7/3/4 -6/3/4
f -6/3/4 -7/3/4 -5/3/4
f -4/3/4 -3/3/4 -2/3/4
f -2/3/4 -3/3/4 -1/3/4
v 11.5 0 1
v 11.5 8 1
v 11.5 9 1
v 12.5 0 1
v 12.5 9 1
f -5/3/4 -4/3/4 -2/3/4
f -4/3/4 -3/3/4 -2/3/4
f -2/3/4 -3/3/4 -1/3/4
v -12.5 16 -2
v -12.5 17 -2
v -11.5 16 -2
v -11.5 17 -2
v -7.5 22 -2
v -7.5 24 -2
v -4.5 22 -2
v -4.5 24 -2
f -8/1/4 -7/1/4 -6/1/4
f -6/1/4 -7/1/4 -5/1/4
f -4/2/4 -3/2/4 -2/2/4
f -2/2/4 -3/2/4 -1/2/4
v -12.5 15 -3
v -12.5 16 -3
v -11.5 16 -3
v -11.5 17 -3
v -10.5 10 -3
v -10.5 11 -3
v -10.5 17 -3
v -10.5 25 -3
v -9.5 11 -3
v -9.5 12 -3
v -9.5 17 -3
v -9.5 24 -3
v -8.5 10 -3
v -8.5 11 -3
v -8.5 12 -3
v -8.5 13 -3
v -7.5 11 -3
v -7.5 13 -3
v -4.5 15 -3
v -4.5 17 -3
v -4.5 24 -3
v -4.5 25 -3
v -0.5 10 -3
v -0.5 11 -3
v 2.5 8 -3
v 2.5 9 -3
v 2.5 10 -3
v 5.5 8 -3
v 5.5 9 -3
v 5.5 11 -3
v 7.5 9 -3
v 7.5 11 -3
v 9.5 10 -3
v 9.5 11 -3
v 10.5 9 -3
v 10.5 10 -3
f -36/1/4 -35/1/4 -34/1/4
f -34/1/4 -33/1/4 -30/1/4
f -32/3/4 -31/3/4 -28/3/4
f -30/1/4 -29/1/4 -26/1/4
f -34/1/4 -30/1/4 -26/1/4
f -26/1/4 -29/1/4 -25/1/4
f -28/3/4 -27/3/4 -24/3/4
f -32/3/4 -28/3/4 -24/3/4
f -24/3/4 -27/3/4 -23/3/4
f -23/3/4 -27/3/4 -22/3/4
f -22/3/4 -21/3/4 -20/3/4
f -23/3/4 -22/3/4 -20/3/4
f -20/3/4 -21/3/4 -19/3/4
f -36/1/4 -34/1/4 -18/1/4
f -34/1/4 -26/1/4 -18/1/4
f -18/1/4 -26/1/4 -17/1/4
f -25/1/4 -29/1/4 -16/1/4
f -16/1/4 -29/1/4 -15/1/4
f -14/4/4 -13/4/4 -10/4/4
f -12/3/4 -11/3/4 -9/3/4
f -11/4/4 -10/4/4 -8/4/4
f -9/3/4 -11/3/4 -8/3/4
f -10/4/4 -13/4/4 -7/4/4
f -8/4/4 -10/4/4 -7/4/4
f -6/4/4 -5/4/4 -4/4/4
f -4/4/4 -5/4/4 -3/4/4
f -6/4/4 -4/4/4 -2/4/4
f -2/4/4 -4/4/4 -1/4/4
v -12.5 0 -4
v -12.5 15 -4
v -10.5 0 -4
v -10.5 13 -4
v -4.5 14 -4
v -4.5 15 -4
v -4.5 17 -4
v -0.5 9 -4
v -0.5 10 -4
v 0.5 0 -4
v 0.5 9 -4
v 2.5 0 -4
v 2.5 10 -4
v 2.5 14 -4
v 2.5 17 -4
v 5.5 0 -4
v 5.5 13 -4
v 7.5 0 -4
v 7.5 8 -4
v 7.5 9 -4
v 7.5 17 -4
v 9.5 10 -4
v 9.5 19 -4
v 10.5 9 -4
v 10.5 10 -4
v 11.5 0 -4
v 11.5 8 -4
v 11.5 19 -4
v 11.5 20 -4
v 12.5 0 -4
v 12.5 20 -4
f -31/3/4 -30/3/4 -29/3/4
f -29/3/4 -30/3/4 -28/3/4
f -28/3/4 -30/3/4 -27/3/4
f -27/3/4 -30/3/4 -26/3/4
f -24/3/4 -23/3/4 -21/3/4
f -22/3/4 -21/3/4 -20/3/4
f -21/3/4 -23/3/4 -19/3/4
f -20/3/4 -21/3/4 -19/3/4
f -28/3/4 -27/3/4 -18/3/4
f -27/6/4 -26/6/4 -18/6/4
f -26/6/4 -25/6/4 -18/6/4
f -18/6/4 -25/6/4 -17/6/4
f -28/3/4 -18/3/4 -15/3/4
f -18/3/4 -17/3/4 -15/3/4
f -16/3/4 -15/3/4 -14/3/4
f -14/3/4 -15/3/4 -13/3/4
f -13/3/4 -15/3/4 -12/3/4
f -15/3/4 -17/3/4 -11/3/4
f -12/3/4 -15/3/4 -11/3/4
f -13/3/4 -12/3/4 -8/3/4
f -10/3/4 -9/3/4 -7/3/4
f -13/3/4 -8/3/4 -5/3/4
f -8/3/4 -7/3/4 -5/3/4
f -7/3/4 -9/3/4 -4/3/4
f -5/3/4 -7/3/4 -4/3/4
f -6/3/4 -5/3/4 -2/3/4
f -4/3/4 -3/3/4 -2/3/4
f -5/3/4 -4/3/4 -2/3/4
f -2/3/4 -3/3/4 -1/3/4
v -12.5 0 4
v -10.5 0 4
v 5.5 0 4
v 7.5 0 4
v 0.5 0 3
v 2.5 0 3
v 5.5 0 3
v 7.5 0 3
v 11.5 0 3
v 12.5 0 3
v -12.5 0 2
v -10.5 0 2
v 0.5 0 2
v 2.5 0 2
v 11.5 0 1
v 12.5 0 1
v -12.5 0 -2
v -10.5 0 -2
v 0.5 0 -2
v 2.5 0 -2
v 5.5 0 -3
v 7.5 0 -3
v 11.5 0 -3
v 12.5 0 -3
v -12.5 0 -4
v -10.5 0 -4
v 0.5 0 -4
v 2.5 0 -4
v 5.5 0 -4
v 7.5 0 -4
v 11.5 0 -4
v 12.5 0 -4
f -26/3/5 -29/3/5 -30/3/5
f -25/3/5 -29/3/5 -26/3/5
f -22/3/5 -31/3/5 -32/3/5
f -21/3/5 -31/3/5 -22/3/5
f -20/3/5 -27/3/5 -28/3/5
f -19/3/5 -27/3/5 -20/3/5
f -18/3/5 -23/3/5 -24/3/5
f -17/3/5 -23/3/5 -18/3/5
f -8/3/5 -15/3/5 -16/3/5
f -7/3/5 -15/3/5 -8/3/5
f -6/3/5 -13/3/5 -14/3/5
f -5/3/5 -13/3/5 -6/3/5
f -4/3/5 -11/3/5 -12/3/5
f -3/3/5 -11/3/5 -4/3/5
f -2/3/5 -9/3/5 -10/3/5
f -1/3/5 -9/3/5 -2/3/5
v 2.5 8 3
v 5.5 8 3
v 7.5 8 3
v 11.5 8 3
v 0.5 8 2
v 2.5 8 2
v 11.5 8 1
v 0.5 8 -2
v 2.5 8 -2
v 2.5 8 -3
v 5.5 8 -3
v 7.5 8 -3
v 11.5 8 -3
v 7.5 8 -4
v 11.5 8 -4
f -10/3/5 -14/3/5 -15/3/5
f -10/3/5 -12/3/5 -13/3/5
f -10/3/5 -13/3/5 -14/3/5
f -9/3/5 -12/3/5 -10/3/5
f -9/3/5 -10/3/5 -11/3/5
f -8/3/5 -9/3/5 -11/3/5
f -7/3/5 -9/3/5 -8/3/5
f -6/3/5 -9/3/5 -7/3/5
f -5/3/5 -9/3/5 -6/3/5
f -4/3/5 -9/3/5 -5/3/5
f -3/3/5 -9/3/5 -4/3/5
f -2/3/5 -3/3/5 -4/3/5
f -1/3/5 -3/3/5 -2/3/5
v -0.5 9 3
v 0.5 9 3
v 11.5 9 1
v 12.5 9 1
v -0.5 9 -3
v 0.5 9 -3
v 11.5 9 -3
v 12.5 9 -3
v -0.5 9 -4
v 0.5 9 -4
f -6/4/5 -9/4/5 -10/4/5
f -5/4/5 -9/4/5 -6/4/5
f -4/3/5 -7/3/5 -8/3/5
f -3/3/5 -7/3/5 -4/3/5
f -2/3/5 -5/3/5 -6/3/5
f -1/3/5 -5/3/5 -2/3/5
v -10.5 10 3
v -8.5 10 3
v -10.5 10 2
v -8.5 10 2
v -10.5 10 -2
v -8.5 10 -2
v -10.5 10 -3
v -8.5 10 -3
v 9.5 10 -3
v 10.5 10 -3
v 9.5 10 -4
v 10.5 10 -4
f -10/3/5 -11/3/5 -12/3/5
f -9/3/5 -11/3/5 -10/3/5
f -6/3/5 -7/3/5 -8/3/5
f -5/3/5 -7/3/5 -6/3/5
f -2/3/5 -3/3/5 -4/3/5
f -1/3/5 -3/3/5 -2/3/5
v -8.5 11 3
v -7.5 11 3
v -8.5 11 2
v -7.5 11 2
v -8.5 11 -2
v -7.5 11 -2
v -8.5 11 -3
v -7.5 11 -3
f -6/3/5 -7/3/5 -8/3/5
f -5/3/5 -7/3/5 -6/3/5
f -2/3/5 -3/3/5 -4/3/5
f -1/3/5 -3/3/5 -2/3/5
v 6.5 12 3
v 7.5 12 3
v -12.5 12 2
v -10.5 12 2
v 5.5 12 2
v 6.5 12 2
v -12.5 12 -2
v -10.5 12 -2
v 5.5 12 -3
v 7.5 12 -3
f -5/3/5 -9/3/5 -10/3/5
f -4/3/5 -7/3/5 -8/3/5
f -3/3/5 -7/3/5 -4/3/5
f -2/3/5 -5/3/5 -6/3/5
f -1/3/5 -9/3/5 -5/3/5
f -1/3/5 -5/3/5 -2/3/5
v -10.5 13 4
v 5.5 13 4
v -8.5 13 3
v -7.5 13 3
v -8.5 13 2
v -7.5 13 2
v -8.5 13 -2
v -7.5 13 -2
v -8.5 13 -3
v -7.5 13 -3
v -10.5 13 -4
v 5.5 13 -4
f -10/3/5 -11/3/5 -12/3/5
f -9/3/5 -11/3/5 -10/3/5
f -8/3/5 -10/3/5 -12/3/5
f -7/3/5 -11/3/5 -9/3/5
f -6/3/5 -8/3/5 -12/3/5
f -6/3/5 -7/3/5 -8/3/5
f -5/3/5 -11/3/5 -7/3/5
f -5/3/5 -7/3/5 -6/3/5
f -4/3/5 -6/3/5 -12/3/5
f -3/3/5 -11/3/5 -5/3/5
f -2/3/5 -4/3/5 -12/3/5
f -2/3/5 -3/3/5 -4/3/5
f -1/3/5 -11/3/5 -3/3/5
f -1/3/5 -3/3/5 -2/3/5
v 9.5 14 3
v 11.5 14 3
v 9.5 14 -3
v 11.5 14 -3
f -2/3/5 -3/3/5 -4/3/5
f -1/3/5 -3/3/5 -2/3/5
v -7.5 22 2
v -4.5 22 2
v -7.5 22 -2
v -4.5 22 -2
f -2/2/5 -3/2/5 -4/2/5
f -1/2/5 -3/2/5 -2/2/5
v -9.5 24 3
v -4.5 24 3
v -7.5 24 2
v -4.5 24 2
v -7.5 24 -2
v -4.5 24 -2
v -9.5 24 -3
v -4.5 24 -3
f -6/1/5 -7/1/5 -8/1/5
f -5/1/5 -7/1/5 -6/1/5
f -4/1/5 -6/1/5 -8/1/5
f -2/1/5 -4/1/5 -8/1/5
f -2/1/5 -3/1/5 -4/1/5
f -1/1/5 -3/1/5 -2/1/5
v 7.5 9 -3
v 10.5 9 -3
v 7.5 9 -4
v 10.5 9 -4
f -4/3/6 -3/3/6 -2/3/6
f -2/3/6 -3/3/6 -1/3/6
v -0.5 10 -3
v 2.5 10 -3
v -0.5 10 -4
v 2.5 10 -4
f -4/3/6 -3/3/6 -2/3/6
f -2/3/6 -3/3/6 -1/3/6
v -10.5 11 3
v -9.5 11 3
v -0.5 11 3
v 5.5 11 3
v 6.5 11 3
v 7.5 11 3
v 10.5 11 3
v -10.5 11 2
v -9.5 11 2
v 5.5 11 2
v 6.5 11 2
v 10.5 11 2
v 11.5 11 2
v -10.5 11 -2
v -9.5 11 -2
v -10.5 11 -3
v -9.5 11 -3
v -0.5 11 -3
v 5.5 11 -3
v 7.5 11 -3
v 9.5 11 -3
v 11.5 11 -3
f -22/3/6 -21/3/6 -15/3/6
f -15/3/6 -21/3/6 -14/3/6
f -20/4/6 -19/4/6 -13/4/6
f -17/4/6 -16/4/6 -12/4/6
f -18/4/6 -17/4/6 -12/4/6
f -12/4/6 -16/4/6 -11/4/6
f -9/3/6 -8/3/6 -7/3/6
f -7/3/6 -8/3/6 -6/3/6
f -20/4/6 -13/4/6 -5/4/6
f -11/4/6 -10/4/6 -5/4/6
f -13/4/6 -12/4/6 -5/4/6
f -12/4/6 -11/4/6 -5/4/6
f -5/4/6 -10/4/6 -4/4/6
f -4/4/6 -10/4/6 -3/4/6
f -3/4/6 -10/4/6 -2/4/6
f -2/4/6 -10/4/6 -1/4/6
v -9.5 12 3
v -8.5 12 3
v 10.5 12 3
v 11.5 12 3
v -9.5 12 2
v -8.5 12 2
v 10.5 12 2
v 11.5 12 2
v -9.5 12 -2
v -8.5 12 -2
v -9.5 12 -3
v -8.5 12 -3
f -12/3/6 -11/3/6 -8/3/6
f -8/3/6 -11/3/6 -7/3/6
f -10/3/6 -9/3/6 -6/3/6
f -6/3/6 -9/3/6 -5/3/6
f -4/3/6 -3/3/6 -2/3/6
f -2/3/6 -3/3/6 -1/3/6
v -12.5 15 4
v -4.5 15 4
v 2.5 15 4
v 7.5 15 4
v -12.5 15 3
v -4.5 15 3
v 2.5 15 3
v 7.5 15 3
v -12.5 15 -3
v -4.5 15 -3
v -12.5 15 -4
v -4.5 15 -4
f -12/3/6 -11/3/6 -8/3/6
f -11/6/6 -10/6/6 -7/6/6
f -8/3/6 -11/3/6 -7/3/6
f -10/3/6 -9/3/6 -6/3/6
f -7/6/6 -10/6/6 -6/6/6
f -6/3/6 -9/3/6 -5/3/6
f -4/3/6 -3/3/6 -2/3/6
f -2/3/6 -3/3/6 -1/3/6
v -12.5 16 3
v -11.5 16 3
v -12.5 16 2
v -11.5 16 2
v -12.5 16 -2
v -11.5 16 -2
v -12.5 16 -3
v -11.5 16 -3
f -8/1/6 -7/1/6 -6/1/6
f -6/1/6 -7/1/6 -5/1/6
f -4/1/6 -3/1/6 -2/1/6
f -2/1/6 -3/1/6 -1/1/6
v -11.5 17 3
v -10.5 17 3
v -9.5 17 3
v -4.5 17 3
v 2.5 17 3
v 7.5 17 3
v -12.5 17 2
v -11.5 17 2
v -12.5 17 -2
v -11.5 17 -2
v -11.5 17 -3
v -10.5 17 -3
v -9.5 17 -3
v -4.5 17 -3
v -4.5 17 -4
v 2.5 17 -4
v 7.5 17 -4
f -17/1/6 -16/1/6 -10/1/6
f -11/1/6 -10/1/6 -9/1/6
f -10/1/6 -16/1/6 -8/1/6
f -9/1/6 -10/1/6 -8/1/6
f -8/1/6 -16/1/6 -7/1/6
f -7/1/6 -16/1/6 -6/1/6
f -15/1/6 -14/1/6 -5/1/6
f -14/6/6 -13/6/6 -4/6/6
f -5/1/6 -14/1/6 -4/1/6
f -4/6/6 -13/6/6 -3/6/6
f -13/3/6 -12/3/6 -2/3/6
f -3/6/6 -13/6/6 -2/6/6
f -2/3/6 -12/3/6 -1/3/6
v 9.5 19 3
v 11.5 19 3
v 9.5 19 -4
v 11.5 19 -4
f -4/3/6 -3/3/6 -2/3/6
f -2/3/6 -3/3/6 -1/3/6
v 11.5 20 3
v 12.5 20 3
v 11.5 20 -4
v 12.5 20 -4
f -4/3/6 -3/3/6 -2/3/6
f -2/3/6 -3/3/6 -1/3/6
v -10.5 25 3
v -4.5 25 3
v -10.5 25 -3
v -4.5 25 -3
f -4/1/6 -3/1/6 -2/1/6
f -2/1/6 -3/1/6 -1/1/6
