# MagicaVoxel @ ephtracy

# material
mtllib Cav_Ground1.mtl
usemtl palette

# normals
vn -1 0 0
vn 1 0 0
vn 0 0 1
vn 0 0 -1
vn 0 -1 0
vn 0 1 0

# texcoords
vt 0.646484 0.5
vt 0.814453 0.5

# verts and faces
v -63 0 3
v -63 0 -4
v -63 10 3
v -63 10 -4
f -2/2/1 -3/2/1 -4/2/1
f -1/2/1 -3/2/1 -2/2/1
v -58 10 3
v -58 10 -4
v -58 11 3
v -58 11 -4
f -2/2/1 -3/2/1 -4/2/1
f -1/2/1 -3/2/1 -2/2/1
v -49 9 3
v -49 9 -4
v -49 10 3
v -49 10 -4
f -2/2/1 -3/2/1 -4/2/1
f -1/2/1 -3/2/1 -2/2/1
v -44 10 3
v -44 10 -4
v -44 11 3
v -44 11 -4
f -2/2/1 -3/2/1 -4/2/1
f -1/2/1 -3/2/1 -2/2/1
v -38 2 4
v -38 2 3
v -38 3 4
v -38 3 3
f -2/1/1 -3/1/1 -4/1/1
f -1/1/1 -3/1/1 -2/1/1
v -36 2 -1
v -36 2 -4
v -36 3 -1
v -36 3 -4
f -2/2/1 -3/2/1 -4/2/1
f -1/2/1 -3/2/1 -2/2/1
v -35 1 4
v -35 1 3
v -35 2 4
v -35 2 3
f -2/1/1 -3/1/1 -4/1/1
f -1/1/1 -3/1/1 -2/1/1
v -33 11 3
v -33 11 -4
v -33 12 3
v -33 12 -4
f -2/2/1 -3/2/1 -4/2/1
f -1/2/1 -3/2/1 -2/2/1
v -32 1 -1
v -32 1 -4
v -32 2 -1
v -32 2 -4
f -2/2/1 -3/2/1 -4/2/1
f -1/2/1 -3/2/1 -2/2/1
v -29 12 3
v -29 12 -4
v -29 13 3
v -29 13 -4
f -2/2/1 -3/2/1 -4/2/1
f -1/2/1 -3/2/1 -2/2/1
v -22 13 3
v -22 13 -4
v -22 14 3
v -22 14 -4
f -2/2/1 -3/2/1 -4/2/1
f -1/2/1 -3/2/1 -2/2/1
v -18 14 3
v -18 14 -4
v -18 15 3
v -18 15 -4
f -2/2/1 -3/2/1 -4/2/1
f -1/2/1 -3/2/1 -2/2/1
v -9 5 4
v -9 5 3
v -9 6 4
v -9 6 3
f -2/1/1 -3/1/1 -4/1/1
f -1/1/1 -3/1/1 -2/1/1
v -8 6 -1
v -8 6 -4
v -8 7 -1
v -8 7 -4
f -2/2/1 -3/2/1 -4/2/1
f -1/2/1 -3/2/1 -2/2/1
v -6 5 -1
v -6 5 -4
v -6 6 -1
v -6 6 -4
f -2/2/1 -3/2/1 -4/2/1
f -1/2/1 -3/2/1 -2/2/1
v -5 14 3
v -5 14 -4
v -5 15 3
v -5 15 -4
f -2/2/1 -3/2/1 -4/2/1
f -1/2/1 -3/2/1 -2/2/1
v 1 15 3
v 1 15 -4
v 1 16 3
v 1 16 -4
f -2/2/1 -3/2/1 -4/2/1
f -1/2/1 -3/2/1 -2/2/1
v 6 16 3
v 6 16 -4
v 6 17 3
v 6 17 -4
f -2/2/1 -3/2/1 -4/2/1
f -1/2/1 -3/2/1 -2/2/1
v 8 13 4
v 8 13 3
v 8 14 4
v 8 14 3
v 8 17 3
v 8 17 -4
v 8 18 3
v 8 18 -4
f -6/1/1 -7/1/1 -8/1/1
f -5/1/1 -7/1/1 -6/1/1
f -2/2/1 -3/2/1 -4/2/1
f -1/2/1 -3/2/1 -2/2/1
v 9 14 4
v 9 14 3
v 9 15 4
v 9 15 3
v 9 18 3
v 9 18 -4
v 9 19 3
v 9 19 -4
f -6/1/1 -7/1/1 -8/1/1
f -5/1/1 -7/1/1 -6/1/1
f -2/2/1 -3/2/1 -4/2/1
f -1/2/1 -3/2/1 -2/2/1
v 10 14 -1
v 10 14 -4
v 10 15 -1
v 10 15 -4
v 10 19 3
v 10 19 -4
v 10 20 3
v 10 20 -4
f -6/2/1 -7/2/1 -8/2/1
f -5/2/1 -7/2/1 -6/2/1
f -2/2/1 -3/2/1 -4/2/1
f -1/2/1 -3/2/1 -2/2/1
v 12 13 -1
v 12 13 -4
v 12 14 -1
v 12 14 -4
f -2/2/1 -3/2/1 -4/2/1
f -1/2/1 -3/2/1 -2/2/1
v 17 19 3
v 17 19 -4
v 17 20 3
v 17 20 -4
f -2/2/1 -3/2/1 -4/2/1
f -1/2/1 -3/2/1 -2/2/1
v 18 20 3
v 18 20 -4
v 18 21 3
v 18 21 -4
f -2/2/1 -3/2/1 -4/2/1
f -1/2/1 -3/2/1 -2/2/1
v 32 20 4
v 32 20 3
v 32 21 4
v 32 21 3
f -2/1/1 -3/1/1 -4/1/1
f -1/1/1 -3/1/1 -2/1/1
v 33 21 3
v 33 21 -1
v 33 22 3
v 33 22 -1
f -2/1/1 -3/1/1 -4/1/1
f -1/1/1 -3/1/1 -2/1/1
v 34 21 4
v 34 21 3
v 34 22 4
v 34 22 3
f -2/1/1 -3/1/1 -4/1/1
f -1/1/1 -3/1/1 -2/1/1
v 38 20 -1
v 38 20 -4
v 38 21 -1
v 38 21 -4
f -2/2/1 -3/2/1 -4/2/1
f -1/2/1 -3/2/1 -2/2/1
v 44 3 4
v 44 3 3
v 44 4 4
v 44 4 3
f -2/1/1 -3/1/1 -4/1/1
f -1/1/1 -3/1/1 -2/1/1
v 45 4 4
v 45 4 3
v 45 5 4
v 45 5 3
f -2/1/1 -3/1/1 -4/1/1
f -1/1/1 -3/1/1 -2/1/1
v 47 4 -1
v 47 4 -4
v 47 5 -1
v 47 5 -4
f -2/2/1 -3/2/1 -4/2/1
f -1/2/1 -3/2/1 -2/2/1
v 49 3 -1
v 49 3 -4
v 49 4 -1
v 49 4 -4
f -2/2/1 -3/2/1 -4/2/1
f -1/2/1 -3/2/1 -2/2/1
v -57 10 3
v -57 10 -4
v -57 11 3
v -57 11 -4
f -4/2/2 -3/2/2 -2/2/2
f -2/2/2 -3/2/2 -1/2/2
v -53 9 3
v -53 9 -4
v -53 10 3
v -53 10 -4
f -4/2/2 -3/2/2 -2/2/2
f -2/2/2 -3/2/2 -1/2/2
v -38 2 -1
v -38 2 -4
v -38 3 -1
v -38 3 -4
f -4/2/2 -3/2/2 -2/2/2
f -2/2/2 -3/2/2 -1/2/2
v -36 2 4
v -36 2 3
v -36 3 4
v -36 3 3
f -4/1/2 -3/1/2 -2/1/2
f -2/1/2 -3/1/2 -1/1/2
v -35 1 -1
v -35 1 -4
v -35 2 -1
v -35 2 -4
f -4/2/2 -3/2/2 -2/2/2
f -2/2/2 -3/2/2 -1/2/2
v -32 1 4
v -32 1 3
v -32 2 4
v -32 2 3
f -4/1/2 -3/1/2 -2/1/2
f -2/1/2 -3/1/2 -1/1/2
v -14 14 3
v -14 14 -4
v -14 15 3
v -14 15 -4
f -4/2/2 -3/2/2 -2/2/2
f -2/2/2 -3/2/2 -1/2/2
v -10 5 -1
v -10 5 -4
v -10 6 -1
v -10 6 -4
f -4/2/2 -3/2/2 -2/2/2
f -2/2/2 -3/2/2 -1/2/2
v -9 6 -1
v -9 6 -4
v -9 7 -1
v -9 7 -4
f -4/2/2 -3/2/2 -2/2/2
f -2/2/2 -3/2/2 -1/2/2
v -7 5 4
v -7 5 3
v -7 6 4
v -7 6 3
f -4/1/2 -3/1/2 -2/1/2
f -2/1/2 -3/1/2 -1/1/2
v 8 13 -1
v 8 13 -4
v 8 15 -1
v 8 15 -4
f -4/2/2 -3/2/2 -2/2/2
f -2/2/2 -3/2/2 -1/2/2
v 10 14 4
v 10 14 3
v 10 15 4
v 10 15 3
f -4/1/2 -3/1/2 -2/1/2
f -2/1/2 -3/1/2 -1/1/2
v 11 13 4
v 11 13 3
v 11 14 4
v 11 14 3
f -4/1/2 -3/1/2 -2/1/2
f -2/1/2 -3/1/2 -1/1/2
v 12 19 3
v 12 19 -4
v 12 20 3
v 12 20 -4
f -4/2/2 -3/2/2 -2/2/2
f -2/2/2 -3/2/2 -1/2/2
v 31 20 -1
v 31 20 -4
v 31 21 -1
v 31 21 -4
f -4/2/2 -3/2/2 -2/2/2
f -2/2/2 -3/2/2 -1/2/2
v 36 21 4
v 36 21 3
v 36 22 4
v 36 22 3
f -4/1/2 -3/1/2 -2/1/2
f -2/1/2 -3/1/2 -1/1/2
v 37 20 4
v 37 20 3
v 37 21 4
v 37 21 3
v 37 21 -1
v 37 22 3
v 37 22 -1
f -7/1/2 -6/1/2 -5/1/2
f -5/1/2 -6/1/2 -4/1/2
f -4/1/2 -3/1/2 -2/1/2
f -2/1/2 -3/1/2 -1/1/2
v 43 3 -1
v 43 3 -4
v 43 4 -1
v 43 4 -4
f -4/2/2 -3/2/2 -2/2/2
f -2/2/2 -3/2/2 -1/2/2
v 44 4 -1
v 44 4 -4
v 44 5 -1
v 44 5 -4
f -4/2/2 -3/2/2 -2/2/2
f -2/2/2 -3/2/2 -1/2/2
v 46 4 4
v 46 4 3
v 46 5 4
v 46 5 3
f -4/1/2 -3/1/2 -2/1/2
f -2/1/2 -3/1/2 -1/1/2
v 48 3 4
v 48 3 3
v 48 4 4
v 48 4 3
v 48 20 3
v 48 20 -4
v 48 21 3
v 48 21 -4
f -8/1/2 -7/1/2 -6/1/2
f -6/1/2 -7/1/2 -5/1/2
f -4/2/2 -3/2/2 -2/2/2
f -2/2/2 -3/2/2 -1/2/2
v 53 19 3
v 53 19 -4
v 53 20 3
v 53 20 -4
f -4/2/2 -3/2/2 -2/2/2
f -2/2/2 -3/2/2 -1/2/2
v 58 18 3
v 58 18 -4
v 58 19 3
v 58 19 -4
f -4/2/2 -3/2/2 -2/2/2
f -2/2/2 -3/2/2 -1/2/2
v 61 17 3
v 61 17 -4
v 61 18 3
v 61 18 -4
f -4/2/2 -3/2/2 -2/2/2
f -2/2/2 -3/2/2 -1/2/2
v 63 0 3
v 63 0 -4
v 63 17 3
v 63 17 -4
f -4/2/2 -3/2/2 -2/2/2
f -2/2/2 -3/2/2 -1/2/2
v -38 2 4
v -38 3 4
v -36 2 4
v -36 3 4
v -35 1 4
v -35 2 4
v -32 1 4
v -32 2 4
v -9 5 4
v -9 6 4
v -7 5 4
v -7 6 4
v 8 13 4
v 8 14 4
v 9 14 4
v 9 15 4
v 10 14 4
v 10 15 4
v 11 13 4
v 11 14 4
v 32 20 4
v 32 21 4
v 34 21 4
v 34 22 4
v 36 21 4
v 36 22 4
v 37 20 4
v 37 21 4
v 44 3 4
v 44 4 4
v 45 4 4
v 45 5 4
v 46 4 4
v 46 5 4
v 48 3 4
v 48 4 4
f -34/1/3 -35/1/3 -36/1/3
f -33/1/3 -35/1/3 -34/1/3
f -30/1/3 -31/1/3 -32/1/3
f -29/1/3 -31/1/3 -30/1/3
f -26/1/3 -27/1/3 -28/1/3
f -25/1/3 -27/1/3 -26/1/3
f -22/1/3 -23/1/3 -24/1/3
f -20/1/3 -22/1/3 -24/1/3
f -20/1/3 -21/1/3 -22/1/3
f -19/1/3 -21/1/3 -20/1/3
f -18/1/3 -20/1/3 -24/1/3
f -17/1/3 -20/1/3 -18/1/3
f -14/1/3 -15/1/3 -16/1/3
f -12/1/3 -14/1/3 -16/1/3
f -12/1/3 -13/1/3 -14/1/3
f -11/1/3 -13/1/3 -12/1/3
f -10/1/3 -12/1/3 -16/1/3
f -9/1/3 -12/1/3 -10/1/3
f -6/1/3 -7/1/3 -8/1/3
f -4/1/3 -6/1/3 -8/1/3
f -4/1/3 -5/1/3 -6/1/3
f -3/1/3 -5/1/3 -4/1/3
f -2/1/3 -4/1/3 -8/1/3
f -1/1/3 -4/1/3 -2/1/3
v -63 0 3
v -63 10 3
v -58 10 3
v -58 11 3
v -57 10 3
v -57 11 3
v -53 9 3
v -53 10 3
v -49 9 3
v -49 10 3
v -44 10 3
v -44 11 3
v -38 2 3
v -38 3 3
v -36 2 3
v -36 3 3
v -35 1 3
v -35 2 3
v -33 11 3
v -33 12 3
v -32 1 3
v -32 2 3
v -29 12 3
v -29 13 3
v -22 13 3
v -22 14 3
v -18 14 3
v -18 15 3
v -14 14 3
v -14 15 3
v -10 5 3
v -10 6 3
v -9 5 3
v -9 6 3
v -9 7 3
v -8 6 3
v -8 7 3
v -7 5 3
v -7 6 3
v -6 5 3
v -6 6 3
v -5 14 3
v -5 15 3
v 1 15 3
v 1 16 3
v 6 16 3
v 6 17 3
v 8 13 3
v 8 14 3
v 8 15 3
v 8 17 3
v 8 18 3
v 9 14 3
v 9 15 3
v 9 18 3
v 9 19 3
v 10 14 3
v 10 15 3
v 10 19 3
v 10 20 3
v 11 13 3
v 11 14 3
v 12 13 3
v 12 14 3
v 12 19 3
v 12 20 3
v 17 19 3
v 17 20 3
v 18 20 3
v 18 21 3
v 31 20 3
v 31 21 3
v 32 20 3
v 32 21 3
v 33 21 3
v 33 22 3
v 34 21 3
v 34 22 3
v 36 21 3
v 36 22 3
v 37 20 3
v 37 21 3
v 37 22 3
v 38 20 3
v 38 21 3
v 43 3 3
v 43 4 3
v 44 3 3
v 44 4 3
v 44 5 3
v 45 4 3
v 45 5 3
v 46 4 3
v 46 5 3
v 47 4 3
v 47 5 3
v 48 3 3
v 48 4 3
v 48 20 3
v 48 21 3
v 49 3 3
v 49 4 3
v 53 19 3
v 53 20 3
v 58 18 3
v 58 19 3
v 61 17 3
v 61 18 3
v 63 0 3
v 63 17 3
f -108/2/3 -109/2/3 -110/2/3
f -106/2/3 -108/2/3 -110/2/3
f -106/2/3 -107/2/3 -108/2/3
f -105/2/3 -107/2/3 -106/2/3
f -104/2/3 -106/2/3 -110/2/3
f -103/2/3 -106/2/3 -104/2/3
f -102/2/3 -104/2/3 -110/2/3
f -100/2/3 -101/2/3 -102/2/3
f -98/2/3 -100/2/3 -102/2/3
f -98/2/3 -99/2/3 -100/2/3
f -98/2/3 -102/2/3 -110/2/3
f -97/2/3 -99/2/3 -98/2/3
f -96/2/3 -98/2/3 -110/2/3
f -95/2/3 -99/2/3 -97/2/3
f -94/2/3 -96/2/3 -110/2/3
f -94/2/3 -95/2/3 -96/2/3
f -93/2/3 -95/2/3 -94/2/3
f -92/2/3 -99/2/3 -95/2/3
f -92/2/3 -95/2/3 -93/2/3
f -90/2/3 -94/2/3 -110/2/3
f -89/2/3 -92/2/3 -93/2/3
f -89/2/3 -91/2/3 -92/2/3
f -88/2/3 -91/2/3 -89/2/3
f -88/2/3 -89/2/3 -90/2/3
f -86/2/3 -87/2/3 -88/2/3
f -84/2/3 -85/2/3 -86/2/3
f -82/2/3 -84/2/3 -86/2/3
f -82/2/3 -83/2/3 -84/2/3
f -81/2/3 -83/2/3 -82/2/3
f -80/2/3 -88/2/3 -90/2/3
f -80/2/3 -86/2/3 -88/2/3
f -80/2/3 -82/2/3 -86/2/3
f -79/2/3 -82/2/3 -80/2/3
f -78/2/3 -80/2/3 -90/2/3
f -78/1/3 -79/1/3 -80/1/3
f -77/2/3 -82/2/3 -79/2/3
f -77/1/3 -79/1/3 -78/1/3
f -76/2/3 -82/2/3 -77/2/3
f -75/1/3 -76/1/3 -77/1/3
f -74/2/3 -82/2/3 -76/2/3
f -74/1/3 -76/1/3 -75/1/3
f -73/2/3 -78/2/3 -90/2/3
f -72/2/3 -74/2/3 -75/2/3
f -71/2/3 -73/2/3 -90/2/3
f -71/1/3 -72/1/3 -73/1/3
f -70/2/3 -74/2/3 -72/2/3
f -70/1/3 -72/1/3 -71/1/3
f -69/2/3 -82/2/3 -74/2/3
f -69/2/3 -74/2/3 -70/2/3
f -69/2/3 -70/2/3 -71/2/3
f -67/2/3 -68/2/3 -69/2/3
f -65/2/3 -66/2/3 -67/2/3
f -63/2/3 -67/2/3 -69/2/3
f -63/2/3 -64/2/3 -65/2/3
f -63/2/3 -65/2/3 -67/2/3
f -63/2/3 -69/2/3 -71/2/3
f -62/2/3 -64/2/3 -63/2/3
f -61/2/3 -64/2/3 -62/2/3
f -60/2/3 -64/2/3 -61/2/3
f -58/1/3 -61/1/3 -62/1/3
f -57/2/3 -59/2/3 -60/2/3
f -57/1/3 -61/1/3 -58/1/3
f -57/2/3 -60/2/3 -61/2/3
f -56/2/3 -59/2/3 -57/2/3
f -53/2/3 -55/2/3 -56/2/3
f -53/2/3 -56/2/3 -57/2/3
f -52/2/3 -55/2/3 -53/2/3
f -50/2/3 -63/2/3 -71/2/3
f -49/2/3 -51/2/3 -52/2/3
f -49/2/3 -53/2/3 -54/2/3
f -49/2/3 -52/2/3 -53/2/3
f -48/2/3 -50/2/3 -71/2/3
f -48/1/3 -49/1/3 -50/1/3
f -47/2/3 -51/2/3 -49/2/3
f -47/1/3 -49/1/3 -48/1/3
f -46/2/3 -51/2/3 -47/2/3
f -45/2/3 -51/2/3 -46/2/3
f -44/2/3 -47/2/3 -48/2/3
f -44/2/3 -46/2/3 -47/2/3
f -42/2/3 -43/2/3 -44/2/3
f -40/2/3 -42/2/3 -44/2/3
f -40/2/3 -41/2/3 -42/2/3
f -39/2/3 -41/2/3 -40/2/3
f -38/2/3 -40/2/3 -44/2/3
f -38/1/3 -39/1/3 -40/1/3
f -37/1/3 -39/1/3 -38/1/3
f -34/1/3 -35/1/3 -36/1/3
f -33/1/3 -35/1/3 -34/1/3
f -30/2/3 -38/2/3 -44/2/3
f -29/1/3 -31/1/3 -32/1/3
f -28/1/3 -31/1/3 -29/1/3
f -27/2/3 -30/2/3 -44/2/3
f -27/1/3 -29/1/3 -30/1/3
f -26/1/3 -29/1/3 -27/1/3
f -25/2/3 -71/2/3 -90/2/3
f -25/2/3 -48/2/3 -71/2/3
f -25/2/3 -26/2/3 -27/2/3
f -25/2/3 -27/2/3 -44/2/3
f -25/2/3 -44/2/3 -48/2/3
f -24/2/3 -26/2/3 -25/2/3
f -23/2/3 -25/2/3 -90/2/3
f -23/1/3 -24/1/3 -25/1/3
f -22/2/3 -26/2/3 -24/2/3
f -22/1/3 -24/1/3 -23/1/3
f -21/2/3 -26/2/3 -22/2/3
f -20/1/3 -21/1/3 -22/1/3
f -19/2/3 -26/2/3 -21/2/3
f -19/1/3 -21/1/3 -20/1/3
f -17/2/3 -26/2/3 -19/2/3
f -16/1/3 -17/1/3 -18/1/3
f -15/2/3 -26/2/3 -17/2/3
f -15/1/3 -17/1/3 -16/1/3
f -14/2/3 -23/2/3 -90/2/3
f -13/2/3 -15/2/3 -16/2/3
f -12/2/3 -26/2/3 -15/2/3
f -12/2/3 -15/2/3 -13/2/3
f -11/2/3 -26/2/3 -12/2/3
f -10/1/3 -13/1/3 -14/1/3
f -10/2/3 -14/2/3 -90/2/3
f -9/2/3 -12/2/3 -13/2/3
f -9/1/3 -13/1/3 -10/1/3
f -8/2/3 -9/2/3 -10/2/3
f -8/2/3 -12/2/3 -9/2/3
f -7/2/3 -12/2/3 -8/2/3
f -6/2/3 -8/2/3 -10/2/3
f -5/2/3 -8/2/3 -6/2/3
f -4/2/3 -6/2/3 -10/2/3
f -3/2/3 -6/2/3 -4/2/3
f -2/2/3 -90/2/3 -110/2/3
f -2/2/3 -10/2/3 -90/2/3
f -2/2/3 -4/2/3 -10/2/3
f -1/2/3 -4/2/3 -2/2/3
v -38 2 -1
v -38 3 -1
v -36 2 -1
v -36 3 -1
v -35 1 -1
v -35 2 -1
v -32 1 -1
v -32 2 -1
v -10 5 -1
v -10 6 -1
v -9 6 -1
v -9 7 -1
v -8 6 -1
v -8 7 -1
v -6 5 -1
v -6 6 -1
v 8 13 -1
v 8 15 -1
v 10 14 -1
v 10 15 -1
v 12 13 -1
v 12 14 -1
v 31 20 -1
v 31 21 -1
v 33 21 -1
v 33 22 -1
v 37 21 -1
v 37 22 -1
v 38 20 -1
v 38 21 -1
v 43 3 -1
v 43 4 -1
v 44 4 -1
v 44 5 -1
v 47 4 -1
v 47 5 -1
v 49 3 -1
v 49 4 -1
f -38/1/4 -37/1/4 -36/1/4
f -36/1/4 -37/1/4 -35/1/4
f -34/1/4 -33/1/4 -32/1/4
f -32/1/4 -33/1/4 -31/1/4
f -30/1/4 -29/1/4 -28/1/4
f -30/1/4 -28/1/4 -26/1/4
f -28/1/4 -27/1/4 -26/1/4
f -26/1/4 -27/1/4 -25/1/4
f -30/1/4 -26/1/4 -24/1/4
f -24/1/4 -26/1/4 -23/1/4
f -22/1/4 -21/1/4 -20/1/4
f -20/1/4 -21/1/4 -19/1/4
f -22/1/4 -20/1/4 -18/1/4
f -18/1/4 -20/1/4 -17/1/4
f -16/1/4 -15/1/4 -14/1/4
f -16/1/4 -14/1/4 -12/1/4
f -14/1/4 -13/1/4 -12/1/4
f -12/1/4 -13/1/4 -11/1/4
f -16/1/4 -12/1/4 -10/1/4
f -10/1/4 -12/1/4 -9/1/4
f -8/1/4 -7/1/4 -6/1/4
f -8/1/4 -6/1/4 -4/1/4
f -6/1/4 -5/1/4 -4/1/4
f -4/1/4 -5/1/4 -3/1/4
f -8/1/4 -4/1/4 -2/1/4
f -2/1/4 -4/1/4 -1/1/4
v -63 0 -4
v -63 10 -4
v -58 10 -4
v -58 11 -4
v -57 10 -4
v -57 11 -4
v -53 9 -4
v -53 10 -4
v -49 9 -4
v -49 10 -4
v -44 10 -4
v -44 11 -4
v -38 2 -4
v -38 3 -4
v -36 2 -4
v -36 3 -4
v -35 1 -4
v -35 2 -4
v -33 11 -4
v -33 12 -4
v -32 1 -4
v -32 2 -4
v -29 12 -4
v -29 13 -4
v -22 13 -4
v -22 14 -4
v -18 14 -4
v -18 15 -4
v -14 14 -4
v -14 15 -4
v -10 5 -4
v -10 6 -4
v -9 6 -4
v -9 7 -4
v -8 6 -4
v -8 7 -4
v -6 5 -4
v -6 6 -4
v -5 14 -4
v -5 15 -4
v 1 15 -4
v 1 16 -4
v 6 16 -4
v 6 17 -4
v 8 13 -4
v 8 15 -4
v 8 17 -4
v 8 18 -4
v 9 18 -4
v 9 19 -4
v 10 14 -4
v 10 15 -4
v 10 19 -4
v 10 20 -4
v 12 13 -4
v 12 14 -4
v 12 19 -4
v 12 20 -4
v 17 19 -4
v 17 20 -4
v 18 20 -4
v 18 21 -4
v 31 20 -4
v 31 21 -4
v 38 20 -4
v 38 21 -4
v 43 3 -4
v 43 4 -4
v 44 4 -4
v 44 5 -4
v 47 4 -4
v 47 5 -4
v 48 20 -4
v 48 21 -4
v 49 3 -4
v 49 4 -4
v 53 19 -4
v 53 20 -4
v 58 18 -4
v 58 19 -4
v 61 17 -4
v 61 18 -4
v 63 0 -4
v 63 17 -4
f -84/2/4 -83/2/4 -82/2/4
f -84/2/4 -82/2/4 -80/2/4
f -82/2/4 -81/2/4 -80/2/4
f -80/2/4 -81/2/4 -79/2/4
f -84/2/4 -80/2/4 -78/2/4
f -78/2/4 -80/2/4 -77/2/4
f -84/2/4 -78/2/4 -76/2/4
f -76/2/4 -75/2/4 -74/2/4
f -76/2/4 -74/2/4 -72/2/4
f -74/2/4 -73/2/4 -72/2/4
f -84/2/4 -76/2/4 -72/2/4
f -72/2/4 -73/2/4 -71/2/4
f -84/2/4 -72/2/4 -70/2/4
f -71/2/4 -73/2/4 -69/2/4
f -84/2/4 -70/2/4 -68/2/4
f -70/2/4 -69/2/4 -68/2/4
f -68/2/4 -69/2/4 -67/2/4
f -69/2/4 -73/2/4 -66/2/4
f -67/2/4 -69/2/4 -66/2/4
f -84/2/4 -68/2/4 -64/2/4
f -67/2/4 -66/2/4 -63/2/4
f -66/2/4 -65/2/4 -63/2/4
f -63/2/4 -65/2/4 -62/2/4
f -64/2/4 -63/2/4 -62/2/4
f -62/2/4 -61/2/4 -60/2/4
f -60/2/4 -59/2/4 -58/2/4
f -60/2/4 -58/2/4 -56/2/4
f -58/2/4 -57/2/4 -56/2/4
f -56/2/4 -57/2/4 -55/2/4
f -64/2/4 -62/2/4 -54/2/4
f -62/2/4 -60/2/4 -54/2/4
f -60/2/4 -56/2/4 -54/2/4
f -54/2/4 -56/2/4 -53/2/4
f -53/2/4 -56/2/4 -52/2/4
f -52/2/4 -56/2/4 -51/2/4
f -51/2/4 -56/2/4 -49/2/4
f -64/2/4 -54/2/4 -48/2/4
f -50/2/4 -49/2/4 -47/2/4
f -49/2/4 -56/2/4 -46/2/4
f -48/2/4 -47/2/4 -46/2/4
f -47/2/4 -49/2/4 -46/2/4
f -46/2/4 -45/2/4 -44/2/4
f -44/2/4 -43/2/4 -42/2/4
f -46/2/4 -44/2/4 -40/2/4
f -42/2/4 -41/2/4 -40/2/4
f -44/2/4 -42/2/4 -40/2/4
f -48/2/4 -46/2/4 -40/2/4
f -40/2/4 -41/2/4 -39/2/4
f -39/2/4 -41/2/4 -38/2/4
f -38/2/4 -37/2/4 -36/2/4
f -39/2/4 -38/2/4 -36/2/4
f -39/2/4 -36/2/4 -33/2/4
f -36/2/4 -35/2/4 -33/2/4
f -33/2/4 -35/2/4 -32/2/4
f -48/2/4 -40/2/4 -30/2/4
f -32/2/4 -31/2/4 -29/2/4
f -34/2/4 -33/2/4 -29/2/4
f -33/2/4 -32/2/4 -29/2/4
f -29/2/4 -31/2/4 -28/2/4
f -28/2/4 -31/2/4 -27/2/4
f -30/2/4 -29/2/4 -26/2/4
f -29/2/4 -28/2/4 -26/2/4
f -26/2/4 -25/2/4 -24/2/4
f -26/2/4 -24/2/4 -22/2/4
f -24/2/4 -23/2/4 -22/2/4
f -22/2/4 -23/2/4 -21/2/4
f -26/2/4 -22/2/4 -20/2/4
f -64/2/4 -48/2/4 -18/2/4
f -20/2/4 -19/2/4 -18/2/4
f -26/2/4 -20/2/4 -18/2/4
f -48/2/4 -30/2/4 -18/2/4
f -30/2/4 -26/2/4 -18/2/4
f -18/2/4 -19/2/4 -17/2/4
f -17/2/4 -19/2/4 -16/2/4
f -16/2/4 -19/2/4 -15/2/4
f -15/2/4 -19/2/4 -13/2/4
f -13/2/4 -19/2/4 -12/2/4
f -14/2/4 -13/2/4 -12/2/4
f -12/2/4 -19/2/4 -11/2/4
f -64/2/4 -18/2/4 -10/2/4
f -14/2/4 -12/2/4 -9/2/4
f -9/2/4 -12/2/4 -8/2/4
f -10/2/4 -9/2/4 -8/2/4
f -8/2/4 -12/2/4 -7/2/4
f -10/2/4 -8/2/4 -6/2/4
f -6/2/4 -8/2/4 -5/2/4
f -10/2/4 -6/2/4 -4/2/4
f -4/2/4 -6/2/4 -3/2/4
f -84/2/4 -64/2/4 -2/2/4
f -64/2/4 -10/2/4 -2/2/4
f -10/2/4 -4/2/4 -2/2/4
f -2/2/4 -4/2/4 -1/2/4
v -63 0 3
v 63 0 3
v -63 0 -4
v 63 0 -4
f -2/2/5 -3/2/5 -4/2/5
f -1/2/5 -3/2/5 -2/2/5
v -35 1 4
v -32 1 4
v -35 1 3
v -32 1 3
f -2/1/5 -3/1/5 -4/1/5
f -1/1/5 -3/1/5 -2/1/5
v -38 2 4
v -36 2 4
v -38 2 3
v -36 2 3
v -35 2 -1
v -32 2 -1
v -35 2 -4
v -32 2 -4
f -6/1/5 -7/1/5 -8/1/5
f -5/1/5 -7/1/5 -6/1/5
f -2/2/5 -3/2/5 -4/2/5
f -1/2/5 -3/2/5 -2/2/5
v 44 3 4
v 48 3 4
v 44 3 3
v 48 3 3
v -38 3 -1
v -36 3 -1
v -38 3 -4
v -36 3 -4
f -6/1/5 -7/1/5 -8/1/5
f -5/1/5 -7/1/5 -6/1/5
f -2/2/5 -3/2/5 -4/2/5
f -1/2/5 -3/2/5 -2/2/5
v 43 4 -1
v 44 4 -1
v 47 4 -1
v 49 4 -1
v 43 4 -4
v 44 4 -4
v 47 4 -4
v 49 4 -4
f -4/2/5 -7/2/5 -8/2/5
f -3/2/5 -7/2/5 -4/2/5
f -2/2/5 -5/2/5 -6/2/5
f -1/2/5 -5/2/5 -2/2/5
v -9 5 4
v -7 5 4
v -9 5 3
v -7 5 3
v 44 5 -1
v 47 5 -1
v 44 5 -4
v 47 5 -4
f -6/1/5 -7/1/5 -8/1/5
f -5/1/5 -7/1/5 -6/1/5
f -2/2/5 -3/2/5 -4/2/5
f -1/2/5 -3/2/5 -2/2/5
v -10 6 -1
v -9 6 -1
v -8 6 -1
v -6 6 -1
v -10 6 -4
v -9 6 -4
v -8 6 -4
v -6 6 -4
f -4/2/5 -7/2/5 -8/2/5
f -3/2/5 -7/2/5 -4/2/5
f -2/2/5 -5/2/5 -6/2/5
f -1/2/5 -5/2/5 -2/2/5
v -9 7 -1
v -8 7 -1
v -9 7 -4
v -8 7 -4
f -2/2/5 -3/2/5 -4/2/5
f -1/2/5 -3/2/5 -2/2/5
v 8 13 4
v 11 13 4
v 8 13 3
v 11 13 3
f -2/1/5 -3/1/5 -4/1/5
f -1/1/5 -3/1/5 -2/1/5
v 10 14 -1
v 12 14 -1
v 10 14 -4
v 12 14 -4
f -2/2/5 -3/2/5 -4/2/5
f -1/2/5 -3/2/5 -2/2/5
v 8 15 -1
v 10 15 -1
v 8 15 -4
v 10 15 -4
f -2/2/5 -3/2/5 -4/2/5
f -1/2/5 -3/2/5 -2/2/5
v 32 20 4
v 37 20 4
v 32 20 3
v 37 20 3
f -2/1/5 -3/1/5 -4/1/5
f -1/1/5 -3/1/5 -2/1/5
v -35 1 -1
v -32 1 -1
v -35 1 -4
v -32 1 -4
f -4/2/6 -3/2/6 -2/2/6
f -2/2/6 -3/2/6 -1/2/6
v -35 2 4
v -32 2 4
v -35 2 3
v -32 2 3
v -38 2 -1
v -36 2 -1
v -38 2 -4
v -36 2 -4
f -8/1/6 -7/1/6 -6/1/6
f -6/1/6 -7/1/6 -5/1/6
f -4/2/6 -3/2/6 -2/2/6
f -2/2/6 -3/2/6 -1/2/6
v -38 3 4
v -36 3 4
v -38 3 3
v -36 3 3
v 43 3 -1
v 49 3 -1
v 43 3 -4
v 49 3 -4
f -8/1/6 -7/1/6 -6/1/6
f -6/1/6 -7/1/6 -5/1/6
f -4/2/6 -3/2/6 -2/2/6
f -2/2/6 -3/2/6 -1/2/6
v 44 4 4
v 45 4 4
v 46 4 4
v 48 4 4
v 44 4 3
v 45 4 3
v 46 4 3
v 47 4 3
v 48 4 3
f -9/1/6 -8/1/6 -5/1/6
f -5/1/6 -8/1/6 -4/1/6
f -7/1/6 -6/1/6 -3/1/6
f -3/1/6 -6/1/6 -2/1/6
f -2/1/6 -6/1/6 -1/1/6
v 45 5 4
v 46 5 4
v 45 5 3
v 46 5 3
v -10 5 -1
v -6 5 -1
v -10 5 -4
v -6 5 -4
f -8/1/6 -7/1/6 -6/1/6
f -6/1/6 -7/1/6 -5/1/6
f -4/2/6 -3/2/6 -2/2/6
f -2/2/6 -3/2/6 -1/2/6
v -9 6 4
v -7 6 4
v -9 6 3
v -8 6 3
v -7 6 3
f -5/1/6 -4/1/6 -3/1/6
f -3/1/6 -4/1/6 -2/1/6
f -2/1/6 -4/1/6 -1/1/6
v -53 9 3
v -49 9 3
v -53 9 -4
v -49 9 -4
f -4/2/6 -3/2/6 -2/2/6
f -2/2/6 -3/2/6 -1/2/6
v -63 10 3
v -58 10 3
v -57 10 3
v -53 10 3
v -49 10 3
v -44 10 3
v -63 10 -4
v -58 10 -4
v -57 10 -4
v -53 10 -4
v -49 10 -4
v -44 10 -4
f -12/2/6 -11/2/6 -6/2/6
f -6/2/6 -11/2/6 -5/2/6
f -10/2/6 -9/2/6 -4/2/6
f -4/2/6 -9/2/6 -3/2/6
f -8/2/6 -7/2/6 -2/2/6
f -2/2/6 -7/2/6 -1/2/6
v -58 11 3
v -57 11 3
v -44 11 3
v -33 11 3
v -58 11 -4
v -57 11 -4
v -44 11 -4
v -33 11 -4
f -8/2/6 -7/2/6 -4/2/6
f -4/2/6 -7/2/6 -3/2/6
f -6/2/6 -5/2/6 -2/2/6
f -2/2/6 -5/2/6 -1/2/6
v -33 12 3
v -29 12 3
v -33 12 -4
v -29 12 -4
f -4/2/6 -3/2/6 -2/2/6
f -2/2/6 -3/2/6 -1/2/6
v -29 13 3
v -22 13 3
v 8 13 -1
v 12 13 -1
v -29 13 -4
v -22 13 -4
v 8 13 -4
v 12 13 -4
f -8/2/6 -7/2/6 -4/2/6
f -4/2/6 -7/2/6 -3/2/6
f -6/2/6 -5/2/6 -2/2/6
f -2/2/6 -5/2/6 -1/2/6
v 8 14 4
v 9 14 4
v 10 14 4
v 11 14 4
v -22 14 3
v -18 14 3
v -14 14 3
v -5 14 3
v 8 14 3
v 9 14 3
v 10 14 3
v 11 14 3
v -22 14 -4
v -18 14 -4
v -14 14 -4
v -5 14 -4
f -16/1/6 -15/1/6 -8/1/6
f -8/1/6 -15/1/6 -7/1/6
f -14/1/6 -13/1/6 -6/1/6
f -6/1/6 -13/1/6 -5/1/6
f -12/2/6 -11/2/6 -4/2/6
f -4/2/6 -11/2/6 -3/2/6
f -10/2/6 -9/2/6 -2/2/6
f -2/2/6 -9/2/6 -1/2/6
v 9 15 4
v 10 15 4
v -18 15 3
v -14 15 3
v -5 15 3
v 1 15 3
v 9 15 3
v 10 15 3
v -18 15 -4
v -14 15 -4
v -5 15 -4
v 1 15 -4
f -12/1/6 -11/1/6 -6/1/6
f -6/1/6 -11/1/6 -5/1/6
f -10/2/6 -9/2/6 -4/2/6
f -4/2/6 -9/2/6 -3/2/6
f -8/2/6 -7/2/6 -2/2/6
f -2/2/6 -7/2/6 -1/2/6
v 1 16 3
v 6 16 3
v 1 16 -4
v 6 16 -4
f -4/2/6 -3/2/6 -2/2/6
f -2/2/6 -3/2/6 -1/2/6
v 6 17 3
v 8 17 3
v 61 17 3
v 63 17 3
v 6 17 -4
v 8 17 -4
v 61 17 -4
v 63 17 -4
f -8/2/6 -7/2/6 -4/2/6
f -4/2/6 -7/2/6 -3/2/6
f -6/2/6 -5/2/6 -2/2/6
f -2/2/6 -5/2/6 -1/2/6
v 8 18 3
v 9 18 3
v 58 18 3
v 61 18 3
v 8 18 -4
v 9 18 -4
v 58 18 -4
v 61 18 -4
f -8/2/6 -7/2/6 -4/2/6
f -4/2/6 -7/2/6 -3/2/6
f -6/2/6 -5/2/6 -2/2/6
f -2/2/6 -5/2/6 -1/2/6
v 9 19 3
v 10 19 3
v 12 19 3
v 17 19 3
v 53 19 3
v 58 19 3
v 9 19 -4
v 10 19 -4
v 12 19 -4
v 17 19 -4
v 53 19 -4
v 58 19 -4
f -12/2/6 -11/2/6 -6/2/6
f -6/2/6 -11/2/6 -5/2/6
f -10/2/6 -9/2/6 -4/2/6
f -4/2/6 -9/2/6 -3/2/6
f -8/2/6 -7/2/6 -2/2/6
f -2/2/6 -7/2/6 -1/2/6
v 10 20 3
v 12 20 3
v 17 20 3
v 18 20 3
v 48 20 3
v 53 20 3
v 31 20 -1
v 38 20 -1
v 10 20 -4
v 12 20 -4
v 17 20 -4
v 18 20 -4
v 31 20 -4
v 38 20 -4
v 48 20 -4
v 53 20 -4
f -16/2/6 -15/2/6 -8/2/6
f -8/2/6 -15/2/6 -7/2/6
f -14/2/6 -13/2/6 -6/2/6
f -6/2/6 -13/2/6 -5/2/6
f -10/2/6 -9/2/6 -4/2/6
f -4/2/6 -9/2/6 -3/2/6
f -12/2/6 -11/2/6 -2/2/6
f -2/2/6 -11/2/6 -1/2/6
v 32 21 4
v 34 21 4
v 36 21 4
v 37 21 4
v 18 21 3
v 31 21 3
v 32 21 3
v 33 21 3
v 34 21 3
v 36 21 3
v 37 21 3
v 38 21 3
v 48 21 3
v 31 21 -1
v 33 21 -1
v 37 21 -1
v 38 21 -1
v 18 21 -4
v 31 21 -4
v 38 21 -4
v 48 21 -4
f -21/1/6 -20/1/6 -15/1/6
f -15/1/6 -20/1/6 -14/1/6
f -14/1/6 -20/1/6 -13/1/6
f -19/1/6 -18/1/6 -12/1/6
f -12/1/6 -18/1/6 -11/1/6
f -17/2/6 -16/2/6 -8/2/6
f -16/1/6 -15/1/6 -8/1/6
f -15/1/6 -14/1/6 -8/1/6
f -8/1/6 -14/1/6 -7/1/6
f -11/1/6 -10/1/6 -6/1/6
f -10/2/6 -9/2/6 -5/2/6
f -6/1/6 -10/1/6 -5/1/6
f -17/2/6 -8/2/6 -4/2/6
f -4/2/6 -8/2/6 -3/2/6
f -5/2/6 -9/2/6 -2/2/6
f -2/2/6 -9/2/6 -1/2/6
v 34 22 4
v 36 22 4
v 33 22 3
v 34 22 3
v 36 22 3
v 37 22 3
v 33 22 -1
v 37 22 -1
f -8/1/6 -7/1/6 -5/1/6
f -5/1/6 -7/1/6 -4/1/6
f -6/1/6 -5/1/6 -2/1/6
f -4/1/6 -3/1/6 -2/1/6
f -5/1/6 -4/1/6 -2/1/6
f -2/1/6 -3/1/6 -1/1/6
