# MagicaVoxel @ ephtracy

# material
mtllib Bedroom_FloorTile.mtl
usemtl palette

# normals
vn -1 0 0
vn 1 0 0
vn 0 0 1
vn 0 0 -1
vn 0 -1 0
vn 0 1 0

# texcoords
vt 0.365234 0.5
vt 0.509766 0.5
vt 0.986328 0.5

# verts and faces
v -8 0 3
v -8 0 -8
v -8 2 4
v -8 2 3
v -8 2 -8
v -8 3 4
v -8 3 3
v -8 3 -8
v -8 4 7
v -8 4 3
v -8 4 -8
v -8 5 7
v -8 5 3
v -8 5 -8
v -8 6 7
v -8 6 3
v -8 6 -8
v -8 8 7
v -8 8 3
v -8 8 -8
v -8 15 3
v -8 15 -8
f -19/3/1 -21/3/1 -22/3/1
f -18/3/1 -21/3/1 -19/3/1
f -17/2/1 -19/2/1 -20/2/1
f -17/2/1 -18/2/1 -19/2/1
f -16/2/1 -18/2/1 -17/2/1
f -15/2/1 -18/2/1 -16/2/1
f -13/3/1 -15/3/1 -16/3/1
f -12/3/1 -15/3/1 -13/3/1
f -11/2/1 -13/2/1 -14/2/1
f -11/2/1 -12/2/1 -13/2/1
f -10/2/1 -12/2/1 -11/2/1
f -9/2/1 -12/2/1 -10/2/1
f -7/3/1 -9/3/1 -10/3/1
f -6/3/1 -9/3/1 -7/3/1
f -5/2/1 -7/2/1 -8/2/1
f -5/2/1 -6/2/1 -7/2/1
f -4/2/1 -6/2/1 -5/2/1
f -3/2/1 -6/2/1 -4/2/1
f -2/3/1 -3/3/1 -4/3/1
f -1/3/1 -3/3/1 -2/3/1
v -7 10 6
v -7 10 3
v -7 12 8
v -7 12 6
v -7 12 3
v -7 15 8
v -7 15 3
v -7 15 -8
v -7 16 8
v -7 16 -8
f -7/2/1 -9/2/1 -10/2/1
f -6/2/1 -9/2/1 -7/2/1
f -5/1/1 -7/1/1 -8/1/1
f -5/1/1 -6/1/1 -7/1/1
f -4/1/1 -6/1/1 -5/1/1
f -2/2/1 -4/2/1 -5/2/1
f -2/2/1 -3/2/1 -4/2/1
f -1/2/1 -3/2/1 -2/2/1
v -6 2 4
v -6 2 3
v -6 3 4
v -6 3 3
f -2/2/1 -3/2/1 -4/2/1
f -1/2/1 -3/2/1 -2/2/1
v -4 2 4
v -4 2 3
v -4 3 4
v -4 3 3
f -2/2/1 -3/2/1 -4/2/1
f -1/2/1 -3/2/1 -2/2/1
v -2 2 4
v -2 2 3
v -2 3 4
v -2 3 3
f -2/2/1 -3/2/1 -4/2/1
f -1/2/1 -3/2/1 -2/2/1
v 0 2 4
v 0 2 3
v 0 3 4
v 0 3 3
v 0 4 7
v 0 4 3
v 0 5 7
v 0 5 3
v 0 6 7
v 0 6 3
v 0 8 7
v 0 8 3
f -10/1/1 -11/1/1 -12/1/1
f -9/1/1 -11/1/1 -10/1/1
f -6/1/1 -7/1/1 -8/1/1
f -5/1/1 -7/1/1 -6/1/1
f -2/1/1 -3/1/1 -4/1/1
f -1/1/1 -3/1/1 -2/1/1
v 2 2 4
v 2 2 3
v 2 3 4
v 2 3 3
f -2/1/1 -3/1/1 -4/1/1
f -1/1/1 -3/1/1 -2/1/1
v 4 2 4
v 4 2 3
v 4 3 4
v 4 3 3
f -2/1/1 -3/1/1 -4/1/1
f -1/1/1 -3/1/1 -2/1/1
v 6 2 4
v 6 2 3
v 6 3 4
v 6 3 3
f -2/1/1 -3/1/1 -4/1/1
f -1/1/1 -3/1/1 -2/1/1
v -7 2 4
v -7 2 3
v -7 3 4
v -7 3 3
f -4/2/2 -3/2/2 -2/2/2
f -2/2/2 -3/2/2 -1/2/2
v -5 2 4
v -5 2 3
v -5 3 4
v -5 3 3
f -4/2/2 -3/2/2 -2/2/2
f -2/2/2 -3/2/2 -1/2/2
v -3 2 4
v -3 2 3
v -3 3 4
v -3 3 3
f -4/2/2 -3/2/2 -2/2/2
f -2/2/2 -3/2/2 -1/2/2
v -1 2 4
v -1 2 3
v -1 3 4
v -1 3 3
v -1 4 7
v -1 4 3
v -1 5 7
v -1 5 3
v -1 6 7
v -1 6 3
v -1 8 7
v -1 8 3
f -12/2/2 -11/2/2 -10/2/2
f -10/2/2 -11/2/2 -9/2/2
f -8/2/2 -7/2/2 -6/2/2
f -6/2/2 -7/2/2 -5/2/2
f -4/2/2 -3/2/2 -2/2/2
f -2/2/2 -3/2/2 -1/2/2
v 1 2 4
v 1 2 3
v 1 3 4
v 1 3 3
f -4/1/2 -3/1/2 -2/1/2
f -2/1/2 -3/1/2 -1/1/2
v 3 2 4
v 3 2 3
v 3 3 4
v 3 3 3
f -4/1/2 -3/1/2 -2/1/2
f -2/1/2 -3/1/2 -1/1/2
v 5 2 4
v 5 2 3
v 5 3 4
v 5 3 3
f -4/1/2 -3/1/2 -2/1/2
f -2/1/2 -3/1/2 -1/1/2
v 7 2 4
v 7 2 3
v 7 3 4
v 7 3 3
v 7 4 7
v 7 4 3
v 7 5 7
v 7 5 3
v 7 6 7
v 7 6 3
v 7 8 7
v 7 8 3
f -12/1/2 -11/1/2 -10/1/2
f -10/1/2 -11/1/2 -9/1/2
f -8/1/2 -7/1/2 -6/1/2
f -6/1/2 -7/1/2 -5/1/2
f -4/1/2 -3/1/2 -2/1/2
f -2/1/2 -3/1/2 -1/1/2
v 8 0 3
v 8 0 -8
v 8 10 6
v 8 10 3
v 8 10 -8
v 8 12 8
v 8 12 6
v 8 12 -8
v 8 15 8
v 8 15 -8
v 8 16 8
v 8 16 -8
f -12/3/2 -11/3/2 -9/3/2
f -9/3/2 -11/3/2 -8/3/2
f -10/2/2 -9/2/2 -6/2/2
f -9/2/2 -8/2/2 -6/2/2
f -6/2/2 -8/2/2 -5/2/2
f -7/1/2 -6/1/2 -4/1/2
f -6/1/2 -5/1/2 -4/1/2
f -4/1/2 -5/1/2 -3/1/2
f -4/2/2 -3/2/2 -2/2/2
f -2/2/2 -3/2/2 -1/2/2
v -7 12 8
v -7 15 8
v -7 16 8
v 8 12 8
v 8 15 8
v 8 16 8
f -3/1/3 -5/1/3 -6/1/3
f -2/2/3 -4/2/3 -5/2/3
f -2/1/3 -5/1/3 -3/1/3
f -1/2/3 -4/2/3 -2/2/3
v -8 4 7
v -8 5 7
v -8 6 7
v -8 8 7
v -1 4 7
v -1 5 7
v -1 6 7
v -1 8 7
v 0 4 7
v 0 5 7
v 0 6 7
v 0 8 7
v 7 4 7
v 7 5 7
v 7 6 7
v 7 8 7
f -12/2/3 -15/2/3 -16/2/3
f -11/2/3 -15/2/3 -12/2/3
f -10/2/3 -13/2/3 -14/2/3
f -9/2/3 -13/2/3 -10/2/3
f -4/1/3 -7/1/3 -8/1/3
f -3/1/3 -7/1/3 -4/1/3
f -2/1/3 -5/1/3 -6/1/3
f -1/1/3 -5/1/3 -2/1/3
v -7 10 6
v -7 12 6
v 8 10 6
v 8 12 6
f -2/2/3 -3/2/3 -4/2/3
f -1/2/3 -3/2/3 -2/2/3
v -8 2 4
v -8 3 4
v -7 2 4
v -7 3 4
v -6 2 4
v -6 3 4
v -5 2 4
v -5 3 4
v -4 2 4
v -4 3 4
v -3 2 4
v -3 3 4
v -2 2 4
v -2 3 4
v -1 2 4
v -1 3 4
v 0 2 4
v 0 3 4
v 1 2 4
v 1 3 4
v 2 2 4
v 2 3 4
v 3 2 4
v 3 3 4
v 4 2 4
v 4 3 4
v 5 2 4
v 5 3 4
v 6 2 4
v 6 3 4
v 7 2 4
v 7 3 4
f -30/2/3 -31/2/3 -32/2/3
f -29/2/3 -31/2/3 -30/2/3
f -26/2/3 -27/2/3 -28/2/3
f -25/2/3 -27/2/3 -26/2/3
f -22/2/3 -23/2/3 -24/2/3
f -21/2/3 -23/2/3 -22/2/3
f -18/2/3 -19/2/3 -20/2/3
f -17/2/3 -19/2/3 -18/2/3
f -14/1/3 -15/1/3 -16/1/3
f -13/1/3 -15/1/3 -14/1/3
f -10/1/3 -11/1/3 -12/1/3
f -9/1/3 -11/1/3 -10/1/3
f -6/1/3 -7/1/3 -8/1/3
f -5/1/3 -7/1/3 -6/1/3
f -2/1/3 -3/1/3 -4/1/3
f -1/1/3 -3/1/3 -2/1/3
v -8 0 3
v -8 2 3
v -8 3 3
v -8 4 3
v -8 5 3
v -8 6 3
v -8 8 3
v -8 15 3
v -7 2 3
v -7 3 3
v -7 10 3
v -7 12 3
v -7 15 3
v -6 2 3
v -6 3 3
v -5 2 3
v -5 3 3
v -4 2 3
v -4 3 3
v -3 2 3
v -3 3 3
v -2 2 3
v -2 3 3
v -1 2 3
v -1 3 3
v -1 4 3
v -1 5 3
v -1 6 3
v -1 8 3
v 0 0 3
v 0 2 3
v 0 3 3
v 0 4 3
v 0 5 3
v 0 6 3
v 0 8 3
v 0 9 3
v 1 2 3
v 1 3 3
v 2 2 3
v 2 3 3
v 3 2 3
v 3 3 3
v 4 2 3
v 4 3 3
v 5 2 3
v 5 3 3
v 6 2 3
v 6 3 3
v 7 0 3
v 7 2 3
v 7 3 3
v 7 4 3
v 7 5 3
v 7 6 3
v 7 8 3
v 7 9 3
v 8 0 3
v 8 10 3
f -51/3/3 -58/3/3 -59/3/3
f -50/3/3 -56/3/3 -57/3/3
f -49/3/3 -52/3/3 -53/3/3
f -48/3/3 -52/3/3 -49/3/3
f -47/3/3 -52/3/3 -48/3/3
f -46/3/3 -50/3/3 -51/3/3
f -46/3/3 -51/3/3 -59/3/3
f -45/3/3 -56/3/3 -50/3/3
f -45/3/3 -50/3/3 -46/3/3
f -44/3/3 -46/3/3 -59/3/3
f -43/3/3 -56/3/3 -45/3/3
f -42/3/3 -44/3/3 -59/3/3
f -42/3/3 -43/3/3 -44/3/3
f -41/3/3 -56/3/3 -43/3/3
f -41/3/3 -43/3/3 -42/3/3
f -40/3/3 -42/3/3 -59/3/3
f -39/3/3 -56/3/3 -41/3/3
f -38/3/3 -40/3/3 -59/3/3
f -38/3/3 -39/3/3 -40/3/3
f -37/3/3 -56/3/3 -39/3/3
f -37/3/3 -39/3/3 -38/3/3
f -36/3/3 -38/3/3 -59/3/3
f -35/3/3 -56/3/3 -37/3/3
f -34/3/3 -56/3/3 -35/3/3
f -33/3/3 -54/3/3 -55/3/3
f -32/3/3 -54/3/3 -33/3/3
f -31/3/3 -49/3/3 -53/3/3
f -30/3/3 -32/3/3 -33/3/3
f -30/3/3 -31/3/3 -32/3/3
f -30/3/3 -34/3/3 -35/3/3
f -30/3/3 -36/3/3 -59/3/3
f -30/3/3 -33/3/3 -34/3/3
f -30/3/3 -35/3/3 -36/3/3
f -29/3/3 -31/3/3 -30/3/3
f -28/3/3 -31/3/3 -29/3/3
f -27/3/3 -31/3/3 -28/3/3
f -26/3/3 -31/3/3 -27/3/3
f -25/3/3 -31/3/3 -26/3/3
f -24/3/3 -49/3/3 -31/3/3
f -24/3/3 -31/3/3 -25/3/3
f -23/3/3 -49/3/3 -24/3/3
f -22/2/3 -29/2/3 -30/2/3
f -21/2/3 -27/2/3 -28/2/3
f -20/2/3 -22/2/3 -30/2/3
f -20/2/3 -21/2/3 -22/2/3
f -19/2/3 -27/2/3 -21/2/3
f -19/2/3 -21/2/3 -20/2/3
f -18/2/3 -20/2/3 -30/2/3
f -17/2/3 -27/2/3 -19/2/3
f -16/2/3 -18/2/3 -30/2/3
f -16/2/3 -17/2/3 -18/2/3
f -15/2/3 -27/2/3 -17/2/3
f -15/2/3 -17/2/3 -16/2/3
f -14/2/3 -16/2/3 -30/2/3
f -13/2/3 -27/2/3 -15/2/3
f -12/2/3 -14/2/3 -30/2/3
f -12/2/3 -13/2/3 -14/2/3
f -11/2/3 -27/2/3 -13/2/3
f -11/2/3 -13/2/3 -12/2/3
f -10/2/3 -12/2/3 -30/2/3
f -9/2/3 -12/2/3 -10/2/3
f -8/2/3 -27/2/3 -11/2/3
f -7/2/3 -27/2/3 -8/2/3
f -6/2/3 -25/2/3 -26/2/3
f -5/2/3 -25/2/3 -6/2/3
f -4/2/3 -23/2/3 -24/2/3
f -3/3/3 -49/3/3 -23/3/3
f -3/2/3 -23/2/3 -4/2/3
f -2/3/3 -7/3/3 -8/3/3
f -2/3/3 -4/3/3 -5/3/3
f -2/3/3 -3/3/3 -4/3/3
f -2/3/3 -5/3/3 -6/3/3
f -2/3/3 -6/3/3 -7/3/3
f -2/3/3 -9/3/3 -10/3/3
f -2/3/3 -8/3/3 -9/3/3
f -1/3/3 -49/3/3 -3/3/3
f -1/3/3 -3/3/3 -2/3/3
v -8 0 -8
v -8 2 -8
v -8 3 -8
v -8 4 -8
v -8 5 -8
v -8 6 -8
v -8 8 -8
v -8 15 -8
v -7 2 -8
v -7 3 -8
v -7 10 -8
v -7 12 -8
v -7 15 -8
v -7 16 -8
v -6 2 -8
v -6 3 -8
v -5 2 -8
v -5 3 -8
v -4 2 -8
v -4 3 -8
v -3 2 -8
v -3 3 -8
v -2 2 -8
v -2 3 -8
v -1 2 -8
v -1 3 -8
v -1 4 -8
v -1 5 -8
v -1 6 -8
v -1 8 -8
v 0 0 -8
v 0 2 -8
v 0 3 -8
v 0 4 -8
v 0 5 -8
v 0 6 -8
v 0 8 -8
v 0 9 -8
v 1 2 -8
v 1 3 -8
v 2 2 -8
v 2 3 -8
v 3 2 -8
v 3 3 -8
v 4 2 -8
v 4 3 -8
v 5 2 -8
v 5 3 -8
v 6 2 -8
v 6 3 -8
v 7 0 -8
v 7 2 -8
v 7 3 -8
v 7 4 -8
v 7 5 -8
v 7 6 -8
v 7 8 -8
v 7 9 -8
v 8 0 -8
v 8 10 -8
v 8 12 -8
v 8 15 -8
v 8 16 -8
f -63/3/4 -62/3/4 -55/3/4
f -62/2/4 -61/2/4 -55/2/4
f -61/3/4 -60/3/4 -54/3/4
f -55/2/4 -61/2/4 -54/2/4
f -57/3/4 -56/3/4 -53/3/4
f -53/3/4 -56/3/4 -52/3/4
f -52/3/4 -56/3/4 -51/3/4
f -63/3/4 -55/3/4 -49/3/4
f -55/3/4 -54/3/4 -49/3/4
f -54/3/4 -60/3/4 -48/3/4
f -49/3/4 -54/3/4 -48/3/4
f -63/3/4 -49/3/4 -47/3/4
f -49/2/4 -48/2/4 -47/2/4
f -48/3/4 -60/3/4 -46/3/4
f -47/2/4 -48/2/4 -46/2/4
f -63/3/4 -47/3/4 -45/3/4
f -47/3/4 -46/3/4 -45/3/4
f -46/3/4 -60/3/4 -44/3/4
f -45/3/4 -46/3/4 -44/3/4
f -63/3/4 -45/3/4 -43/3/4
f -45/2/4 -44/2/4 -43/2/4
f -44/3/4 -60/3/4 -42/3/4
f -43/2/4 -44/2/4 -42/2/4
f -63/3/4 -43/3/4 -41/3/4
f -43/3/4 -42/3/4 -41/3/4
f -42/3/4 -60/3/4 -40/3/4
f -41/3/4 -42/3/4 -40/3/4
f -63/3/4 -41/3/4 -39/3/4
f -41/2/4 -40/2/4 -39/2/4
f -40/3/4 -60/3/4 -38/3/4
f -39/2/4 -40/2/4 -38/2/4
f -60/2/4 -59/2/4 -37/2/4
f -38/3/4 -60/3/4 -37/3/4
f -59/3/4 -58/3/4 -36/3/4
f -37/2/4 -59/2/4 -36/2/4
f -58/2/4 -57/2/4 -35/2/4
f -36/3/4 -58/3/4 -35/3/4
f -57/3/4 -53/3/4 -34/3/4
f -35/2/4 -57/2/4 -34/2/4
f -63/3/4 -39/3/4 -33/3/4
f -37/3/4 -36/3/4 -33/3/4
f -35/3/4 -34/3/4 -33/3/4
f -39/3/4 -38/3/4 -33/3/4
f -36/3/4 -35/3/4 -33/3/4
f -38/3/4 -37/3/4 -33/3/4
f -33/3/4 -34/3/4 -32/3/4
f -32/3/4 -34/3/4 -31/3/4
f -31/3/4 -34/3/4 -30/3/4
f -30/3/4 -34/3/4 -29/3/4
f -29/3/4 -34/3/4 -28/3/4
f -34/3/4 -53/3/4 -27/3/4
f -28/3/4 -34/3/4 -27/3/4
f -27/3/4 -53/3/4 -26/3/4
f -33/2/4 -32/2/4 -25/2/4
f -32/1/4 -31/1/4 -25/1/4
f -31/2/4 -30/2/4 -24/2/4
f -25/1/4 -31/1/4 -24/1/4
f -33/2/4 -25/2/4 -23/2/4
f -25/2/4 -24/2/4 -23/2/4
f -24/2/4 -30/2/4 -22/2/4
f -23/2/4 -24/2/4 -22/2/4
f -33/2/4 -23/2/4 -21/2/4
f -23/1/4 -22/1/4 -21/1/4
f -22/2/4 -30/2/4 -20/2/4
f -21/1/4 -22/1/4 -20/1/4
f -33/2/4 -21/2/4 -19/2/4
f -21/2/4 -20/2/4 -19/2/4
f -20/2/4 -30/2/4 -18/2/4
f -19/2/4 -20/2/4 -18/2/4
f -33/2/4 -19/2/4 -17/2/4
f -19/1/4 -18/1/4 -17/1/4
f -18/2/4 -30/2/4 -16/2/4
f -17/1/4 -18/1/4 -16/1/4
f -33/2/4 -17/2/4 -15/2/4
f -17/2/4 -16/2/4 -15/2/4
f -16/2/4 -30/2/4 -14/2/4
f -15/2/4 -16/2/4 -14/2/4
f -33/2/4 -15/2/4 -13/2/4
f -15/1/4 -14/1/4 -12/1/4
f -13/2/4 -15/2/4 -12/2/4
f -14/2/4 -30/2/4 -11/2/4
f -12/1/4 -14/1/4 -11/1/4
f -30/1/4 -29/1/4 -10/1/4
f -11/2/4 -30/2/4 -10/2/4
f -29/2/4 -28/2/4 -9/2/4
f -10/1/4 -29/1/4 -9/1/4
f -28/1/4 -27/1/4 -8/1/4
f -9/2/4 -28/2/4 -8/2/4
f -27/2/4 -26/2/4 -7/2/4
f -8/1/4 -27/1/4 -7/1/4
f -26/3/4 -53/3/4 -6/3/4
f -7/2/4 -26/2/4 -6/2/4
f -11/3/4 -10/3/4 -5/3/4
f -8/3/4 -7/3/4 -5/3/4
f -7/3/4 -6/3/4 -5/3/4
f -9/3/4 -8/3/4 -5/3/4
f -10/3/4 -9/3/4 -5/3/4
f -12/3/4 -11/3/4 -5/3/4
f -13/3/4 -12/3/4 -5/3/4
f -6/3/4 -53/3/4 -4/3/4
f -5/3/4 -6/3/4 -4/3/4
f -53/2/4 -52/2/4 -4/2/4
f -52/1/4 -51/1/4 -3/1/4
f -4/2/4 -52/2/4 -3/2/4
f -51/2/4 -50/2/4 -2/2/4
f -3/1/4 -51/1/4 -2/1/4
f -2/2/4 -50/2/4 -1/2/4
v -8 0 3
v 0 0 3
v 7 0 3
v 8 0 3
v -8 0 -8
v 0 0 -8
v 7 0 -8
v 8 0 -8
f -4/3/5 -7/3/5 -8/3/5
f -3/2/5 -6/2/5 -7/2/5
f -3/3/5 -7/3/5 -4/3/5
f -2/3/5 -5/3/5 -6/3/5
f -2/2/5 -6/2/5 -3/2/5
f -1/3/5 -5/3/5 -2/3/5
v -8 2 4
v -7 2 4
v -6 2 4
v -5 2 4
v -4 2 4
v -3 2 4
v -2 2 4
v -1 2 4
v 0 2 4
v 1 2 4
v 2 2 4
v 3 2 4
v 4 2 4
v 5 2 4
v 6 2 4
v 7 2 4
v -8 2 3
v -7 2 3
v -6 2 3
v -5 2 3
v -4 2 3
v -3 2 3
v -2 2 3
v -1 2 3
v 0 2 3
v 1 2 3
v 2 2 3
v 3 2 3
v 4 2 3
v 5 2 3
v 6 2 3
v 7 2 3
f -16/2/5 -31/2/5 -32/2/5
f -15/2/5 -31/2/5 -16/2/5
f -14/2/5 -29/2/5 -30/2/5
f -13/2/5 -29/2/5 -14/2/5
f -12/2/5 -27/2/5 -28/2/5
f -11/2/5 -27/2/5 -12/2/5
f -10/2/5 -25/2/5 -26/2/5
f -9/2/5 -25/2/5 -10/2/5
f -8/1/5 -23/1/5 -24/1/5
f -7/1/5 -23/1/5 -8/1/5
f -6/1/5 -21/1/5 -22/1/5
f -5/1/5 -21/1/5 -6/1/5
f -4/1/5 -19/1/5 -20/1/5
f -3/1/5 -19/1/5 -4/1/5
f -2/1/5 -17/1/5 -18/1/5
f -1/1/5 -17/1/5 -2/1/5
v -8 4 7
v -1 4 7
v 0 4 7
v 7 4 7
v -8 4 3
v -1 4 3
v 0 4 3
v 7 4 3
f -4/2/5 -7/2/5 -8/2/5
f -3/2/5 -7/2/5 -4/2/5
f -2/1/5 -5/1/5 -6/1/5
f -1/1/5 -5/1/5 -2/1/5
v -8 6 7
v -1 6 7
v 0 6 7
v 7 6 7
v -8 6 3
v -1 6 3
v 0 6 3
v 7 6 3
f -4/2/5 -7/2/5 -8/2/5
f -3/2/5 -7/2/5 -4/2/5
f -2/1/5 -5/1/5 -6/1/5
f -1/1/5 -5/1/5 -2/1/5
v -7 10 6
v 8 10 6
v -7 10 3
v 8 10 3
f -2/2/5 -3/2/5 -4/2/5
f -1/2/5 -3/2/5 -2/2/5
v -7 12 8
v 8 12 8
v -7 12 6
v 8 12 6
f -2/1/5 -3/1/5 -4/1/5
f -1/1/5 -3/1/5 -2/1/5
v -8 3 4
v -7 3 4
v -6 3 4
v -5 3 4
v -4 3 4
v -3 3 4
v -2 3 4
v -1 3 4
v 0 3 4
v 1 3 4
v 2 3 4
v 3 3 4
v 4 3 4
v 5 3 4
v 6 3 4
v 7 3 4
v -8 3 3
v -7 3 3
v -6 3 3
v -5 3 3
v -4 3 3
v -3 3 3
v -2 3 3
v -1 3 3
v 0 3 3
v 1 3 3
v 2 3 3
v 3 3 3
v 4 3 3
v 5 3 3
v 6 3 3
v 7 3 3
f -32/2/6 -31/2/6 -16/2/6
f -16/2/6 -31/2/6 -15/2/6
f -30/2/6 -29/2/6 -14/2/6
f -14/2/6 -29/2/6 -13/2/6
f -28/2/6 -27/2/6 -12/2/6
f -12/2/6 -27/2/6 -11/2/6
f -26/2/6 -25/2/6 -10/2/6
f -10/2/6 -25/2/6 -9/2/6
f -24/1/6 -23/1/6 -8/1/6
f -8/1/6 -23/1/6 -7/1/6
f -22/1/6 -21/1/6 -6/1/6
f -6/1/6 -21/1/6 -5/1/6
f -20/1/6 -19/1/6 -4/1/6
f -4/1/6 -19/1/6 -3/1/6
f -18/1/6 -17/1/6 -2/1/6
f -2/1/6 -17/1/6 -1/1/6
v -8 5 7
v -1 5 7
v 0 5 7
v 7 5 7
v -8 5 3
v -1 5 3
v 0 5 3
v 7 5 3
f -8/2/6 -7/2/6 -4/2/6
f -4/2/6 -7/2/6 -3/2/6
f -6/1/6 -5/1/6 -2/1/6
f -2/1/6 -5/1/6 -1/1/6
v -8 8 7
v -1 8 7
v 0 8 7
v 7 8 7
v -8 8 3
v -1 8 3
v 0 8 3
v 7 8 3
f -8/2/6 -7/2/6 -4/2/6
f -4/2/6 -7/2/6 -3/2/6
f -6/1/6 -5/1/6 -2/1/6
f -2/1/6 -5/1/6 -1/1/6
v -8 15 3
v -7 15 3
v -8 15 -8
v -7 15 -8
f -4/3/6 -3/3/6 -2/3/6
f -2/3/6 -3/3/6 -1/3/6
v -7 16 8
v 8 16 8
v -7 16 -8
v 8 16 -8
f -4/2/6 -3/2/6 -2/2/6
f -2/2/6 -3/2/6 -1/2/6
